<svg width="33" height="33" viewBox="0 0 33 33" fill="none" xmlns="http://www.w3.org/2000/svg">
<path d="M12.375 20.625H27.5M12.375 15.125H17.875M12.375 9.625H17.875M8.25 25.4375C8.25 26.3492 7.88784 27.2235 7.24318 27.8682C6.59852 28.5128 5.72418 28.875 4.8125 28.875C3.90082 28.875 3.02648 28.5128 2.38182 27.8682C1.73716 27.2235 1.375 26.3492 1.375 25.4375V9.625H8.28438M8.25 25.4375V4.125H31.625V25.4375C31.625 26.3492 31.2628 27.2235 30.6182 27.8682C29.9735 28.5128 29.0992 28.875 28.1875 28.875H4.8125M22 9.625H26.125V15.125H22V9.625Z" stroke="#F8F8F8" stroke-width="2"/>
</svg>
