<svg width="26" height="27" viewBox="0 0 26 27" fill="none" xmlns="http://www.w3.org/2000/svg">
<path d="M25.3005 12.286C25.2999 12.2854 25.2993 12.2849 25.2987 12.2843L14.6927 1.67871C14.2407 1.22644 13.6396 0.977295 13.0003 0.977295C12.361 0.977295 11.7599 1.22624 11.3077 1.67851L0.707272 12.2787C0.703701 12.2823 0.70013 12.286 0.69656 12.2896C-0.231785 13.2233 -0.230198 14.7382 0.701122 15.6695C1.12661 16.0952 1.68858 16.3418 2.28942 16.3676C2.31382 16.37 2.33842 16.3712 2.36322 16.3712H2.78593V24.1762C2.78593 25.7207 4.04257 26.9773 5.58743 26.9773H9.73681C10.1573 26.9773 10.4985 26.6363 10.4985 26.2156V20.0964C10.4985 19.3916 11.0718 18.8184 11.7766 18.8184H14.224C14.9288 18.8184 15.5021 19.3916 15.5021 20.0964V26.2156C15.5021 26.6363 15.8431 26.9773 16.2638 26.9773H20.4132C21.958 26.9773 23.2147 25.7207 23.2147 24.1762V16.3712H23.6066C24.2458 16.3712 24.8468 16.1222 25.2993 15.6699C26.2316 14.737 26.232 13.2195 25.3005 12.286Z" fill="white"/>
</svg>
