<svg width="28" height="23" viewBox="0 0 28 23" fill="none" xmlns="http://www.w3.org/2000/svg">
<path d="M26.2215 14.2587V6.78065L26.532 6.68751C27.7253 6.32935 27.9758 5.723 27.9758 5.27738C27.9758 4.83176 27.7252 4.2254 26.5319 3.86741L16.3201 0.803815C15.6911 0.615128 14.8668 0.51123 13.9991 0.51123C13.1314 0.51123 12.3072 0.615128 11.6781 0.803815L1.46625 3.86741C0.272762 4.2254 0.0222168 4.83176 0.0222168 5.27743C0.0222168 5.72305 0.272707 6.32946 1.4662 6.68756L5.28541 7.83333V14.007C5.28541 14.7736 5.78372 15.8535 8.15765 16.6448C9.73004 17.1689 11.8046 17.4576 13.999 17.4576C16.1934 17.4576 18.268 17.1689 19.8404 16.6448C22.2143 15.8534 22.7126 14.7736 22.7126 14.007V7.83339L24.5836 7.27208V14.2587C23.5651 14.6017 22.8292 15.5651 22.8292 16.6977V20.2065C22.8292 21.6254 23.9835 22.7798 25.4025 22.7798C26.8214 22.7798 27.9758 21.6254 27.9758 20.2065V16.6977C27.9759 15.5651 27.24 14.6017 26.2215 14.2587ZM12.1487 2.37266C12.6223 2.23054 13.2967 2.14908 13.9991 2.14908C14.7014 2.14908 15.3759 2.23054 15.8494 2.3726L25.532 5.27743L21.6543 6.44078C21.6521 6.44149 21.6499 6.44209 21.6477 6.4428L15.8495 8.18232C15.3759 8.32438 14.7015 8.40584 13.9992 8.40584C13.2969 8.40584 12.6224 8.32438 12.1488 8.18232L6.3506 6.4428C6.34836 6.44209 6.34618 6.44149 6.34394 6.44078L2.46625 5.27743L12.1487 2.37266ZM21.0748 11.8563C21.0748 14.1126 20.7775 14.6059 19.3225 15.0909C17.9127 15.5608 16.0221 15.8196 13.9991 15.8196C11.976 15.8196 10.0854 15.5608 8.67566 15.0909C7.22077 14.6059 6.92332 14.1125 6.92332 14.007V8.32465L11.6781 9.7511C12.3071 9.93979 13.1314 10.0437 13.9991 10.0437C14.8668 10.0437 15.691 9.93979 16.3201 9.7511L21.0748 8.32465V11.8563ZM26.338 20.2064C26.338 20.7222 25.9184 21.1418 25.4026 21.1418C24.8868 21.1418 24.4672 20.7222 24.4672 20.2064V16.6977C24.4672 16.1819 24.8867 15.7622 25.4026 15.7622C25.9184 15.7622 26.338 16.1819 26.338 16.6977V20.2064Z" fill="white"/>
</svg>
