<svg width="32" height="36" viewBox="0 0 32 36" fill="none" xmlns="http://www.w3.org/2000/svg">
<path d="M23.4301 21.6458C22.9816 21.6458 22.6176 21.2818 22.6176 20.8333C22.6176 17.722 21.4065 14.7981 19.2073 12.5978C18.8899 12.2804 18.8899 11.7659 19.2073 11.4485C19.5247 11.1311 20.0392 11.1311 20.3568 11.4485C22.8625 13.9552 24.2426 17.2887 24.2426 20.8333C24.2426 21.2818 23.8786 21.6458 23.4301 21.6458Z" fill="#AC3F45"/>
<path d="M1.22168 21.6458C0.773178 21.6458 0.40918 21.2818 0.40918 20.8333C0.40918 17.2887 1.7894 13.9552 4.29613 11.4495C4.61351 11.1321 5.12827 11.1321 5.44565 11.4495C5.76303 11.7668 5.76303 12.2816 5.44565 12.599C3.24539 14.798 2.03418 17.7219 2.03418 20.8333C2.03418 21.2818 1.67018 21.6458 1.22168 21.6458Z" fill="#AC3F45"/>
<path d="M12.3257 36C10.0854 36 8.26318 34.1778 8.26318 31.9375C8.26318 31.489 8.62718 31.125 9.07568 31.125C9.52419 31.125 9.88818 31.489 9.88818 31.9375C9.88818 33.282 10.9812 34.375 12.3257 34.375C13.67 34.375 14.7632 33.282 14.7632 31.9375C14.7632 31.489 15.1272 31.125 15.5757 31.125C16.0242 31.125 16.3882 31.489 16.3882 31.9375C16.3882 34.1778 14.566 36 12.3257 36Z" fill="#AC3F45"/>
<path d="M21.2632 32.75H3.38815C2.34258 32.75 1.49219 31.8996 1.49219 30.8542C1.49219 30.2994 1.7338 29.7741 2.15532 29.4133C3.80293 28.0212 4.74219 25.9977 4.74219 23.8538V20.8333C4.74219 16.6517 8.14394 13.25 12.3257 13.25C16.5072 13.25 19.9089 16.6517 19.9089 20.8333V23.8538C19.9089 25.9977 20.8482 28.0212 22.4851 29.4058C22.9173 29.7741 23.1589 30.2994 23.1589 30.8542C23.1589 31.8996 22.3085 32.75 21.2632 32.75ZM12.3257 14.875C9.03975 14.875 6.36719 17.5476 6.36719 20.8333V23.8538C6.36719 26.4763 5.21786 28.9529 3.21478 30.6461C3.1769 30.6787 3.11719 30.7459 3.11719 30.8542C3.11719 31.0014 3.24077 31.125 3.38815 31.125H21.2632C21.4103 31.125 21.5339 31.0014 21.5339 30.8542C21.5339 30.7459 21.4744 30.6787 21.4385 30.6483C19.4332 28.9529 18.2839 26.4763 18.2839 23.8538V20.8333C18.2839 17.5476 15.6114 14.875 12.3257 14.875Z" fill="#AC3F45"/>
<path d="M12.3257 14.875C11.8772 14.875 11.5132 14.511 11.5132 14.0625V10.8125C11.5132 10.364 11.8772 10 12.3257 10C12.7742 10 13.1382 10.364 13.1382 10.8125V14.0625C13.1382 14.511 12.7742 14.875 12.3257 14.875Z" fill="#AC3F45"/>
<path d="M31.0352 10.499C31.0352 14.9173 27.4534 18.499 23.0352 18.499C18.6169 18.499 15.0352 14.9173 15.0352 10.499C15.0352 6.08075 18.6169 2.49902 23.0352 2.49902C27.4534 2.49902 31.0352 6.08075 31.0352 10.499Z" fill="white"/>
<circle cx="23.0352" cy="10.499" r="7" fill="#F45B5B"/>
<path d="M23.6055 14H22.6973V7.97949L20.876 8.64844V7.82812L23.4639 6.85645H23.6055V14Z" fill="white"/>
</svg>
