<svg width="475" height="379" viewBox="0 0 475 379" fill="none" xmlns="http://www.w3.org/2000/svg">
<rect x="350.982" y="50.244" width="88" height="32" rx="8" fill="#F5F5F7"/>
<path d="M5.528 71.292C5.06933 71.292 4.70667 71.1587 4.44 70.892C4.17333 70.6254 4.04 70.2627 4.04 69.804V61.532C4.15733 61.5107 4.344 61.484 4.6 61.452C4.856 61.4094 5.10133 61.388 5.336 61.388C5.58133 61.388 5.79467 61.4094 5.976 61.452C6.168 61.484 6.328 61.548 6.456 61.644C6.584 61.74 6.68 61.8734 6.744 62.044C6.808 62.2147 6.84 62.4387 6.84 62.716V69.036H10.504C10.5787 69.1534 10.648 69.3134 10.712 69.516C10.776 69.708 10.808 69.9107 10.808 70.124C10.808 70.5507 10.7173 70.8547 10.536 71.036C10.3547 71.2067 10.1147 71.292 9.816 71.292H5.528ZM15.9909 71.5C15.3615 71.5 14.7749 71.4147 14.2309 71.244C13.6975 71.0627 13.2282 70.796 12.8229 70.444C12.4282 70.092 12.1135 69.6494 11.8789 69.116C11.6549 68.5827 11.5429 67.9587 11.5429 67.244C11.5429 66.54 11.6549 65.9374 11.8789 65.436C12.1135 64.924 12.4175 64.508 12.7909 64.188C13.1642 63.8574 13.5909 63.6174 14.0709 63.468C14.5509 63.308 15.0415 63.228 15.5429 63.228C16.1082 63.228 16.6202 63.3134 17.0789 63.484C17.5482 63.6547 17.9482 63.8894 18.2789 64.188C18.6202 64.4867 18.8815 64.844 19.0629 65.26C19.2549 65.676 19.3509 66.1294 19.3509 66.62C19.3509 66.9827 19.2495 67.26 19.0469 67.452C18.8442 67.644 18.5615 67.7667 18.1989 67.82L14.2469 68.412C14.3642 68.764 14.6042 69.0307 14.9669 69.212C15.3295 69.3827 15.7455 69.468 16.2149 69.468C16.6522 69.468 17.0629 69.4147 17.4469 69.308C17.8415 69.1907 18.1615 69.0574 18.4069 68.908C18.5775 69.0147 18.7215 69.164 18.8389 69.356C18.9562 69.548 19.0149 69.7507 19.0149 69.964C19.0149 70.444 18.7909 70.8014 18.3429 71.036C18.0015 71.2174 17.6175 71.34 17.1909 71.404C16.7642 71.468 16.3642 71.5 15.9909 71.5ZM15.5429 65.212C15.2869 65.212 15.0629 65.2547 14.8709 65.34C14.6895 65.4254 14.5402 65.5374 14.4229 65.676C14.3055 65.804 14.2149 65.9534 14.1509 66.124C14.0975 66.284 14.0655 66.4494 14.0549 66.62L16.7909 66.172C16.7589 65.9587 16.6415 65.7454 16.4389 65.532C16.2362 65.3187 15.9375 65.212 15.5429 65.212ZM23.9881 69.516C24.1695 69.516 24.3668 69.5 24.5801 69.468C24.8041 69.4254 24.9695 69.372 25.0761 69.308V68.028L23.9241 68.124C23.6255 68.1454 23.3801 68.2094 23.1881 68.316C22.9961 68.4227 22.9001 68.5827 22.9001 68.796C22.9001 69.0094 22.9801 69.1854 23.1401 69.324C23.3108 69.452 23.5935 69.516 23.9881 69.516ZM23.8601 63.228C24.4361 63.228 24.9588 63.2867 25.4281 63.404C25.9081 63.5214 26.3135 63.7027 26.6441 63.948C26.9855 64.1827 27.2468 64.4867 27.4281 64.86C27.6095 65.2227 27.7001 65.6547 27.7001 66.156V69.74C27.7001 70.0174 27.6201 70.2467 27.4601 70.428C27.3108 70.5987 27.1295 70.748 26.9161 70.876C26.2228 71.292 25.2468 71.5 23.9881 71.5C23.4228 71.5 22.9108 71.4467 22.4521 71.34C22.0041 71.2334 21.6148 71.0734 21.2841 70.86C20.9641 70.6467 20.7135 70.3747 20.5321 70.044C20.3615 69.7134 20.2761 69.3294 20.2761 68.892C20.2761 68.156 20.4948 67.5907 20.9321 67.196C21.3695 66.8014 22.0468 66.556 22.9641 66.46L25.0601 66.236V66.124C25.0601 65.8147 24.9215 65.596 24.6441 65.468C24.3775 65.3294 23.9881 65.26 23.4761 65.26C23.0708 65.26 22.6761 65.3027 22.2921 65.388C21.9081 65.4734 21.5615 65.58 21.2521 65.708C21.1135 65.612 20.9961 65.468 20.9001 65.276C20.8041 65.0734 20.7561 64.8654 20.7561 64.652C20.7561 64.3747 20.8201 64.156 20.9481 63.996C21.0868 63.8254 21.2948 63.6814 21.5721 63.564C21.8815 63.4467 22.2441 63.3614 22.6601 63.308C23.0868 63.2547 23.4868 63.228 23.8601 63.228ZM32.0833 71.228C31.9766 71.26 31.8059 71.292 31.5713 71.324C31.3473 71.356 31.1126 71.372 30.8673 71.372C30.6326 71.372 30.4193 71.356 30.2273 71.324C30.0459 71.292 29.8913 71.228 29.7633 71.132C29.6353 71.036 29.5339 70.908 29.4593 70.748C29.3953 70.5774 29.3633 70.3587 29.3633 70.092V65.292C29.3633 65.0467 29.4059 64.8387 29.4913 64.668C29.5873 64.4867 29.7206 64.3267 29.8913 64.188C30.0619 64.0494 30.2699 63.9267 30.5153 63.82C30.7713 63.7027 31.0433 63.6014 31.3313 63.516C31.6193 63.4307 31.9179 63.3667 32.2273 63.324C32.5366 63.2707 32.8459 63.244 33.1553 63.244C33.6673 63.244 34.0726 63.3454 34.3713 63.548C34.6699 63.74 34.8193 64.06 34.8193 64.508C34.8193 64.6574 34.7979 64.8067 34.7553 64.956C34.7126 65.0947 34.6593 65.2227 34.5953 65.34C34.3713 65.34 34.1419 65.3507 33.9073 65.372C33.6726 65.3934 33.4433 65.4254 33.2193 65.468C32.9953 65.5107 32.7819 65.5587 32.5793 65.612C32.3873 65.6547 32.2219 65.708 32.0833 65.772V71.228ZM40.7131 66.316C40.7131 65.9854 40.6171 65.7454 40.4251 65.596C40.2438 65.436 39.9931 65.356 39.6731 65.356C39.4598 65.356 39.2465 65.3827 39.0331 65.436C38.8305 65.4894 38.6545 65.5694 38.5051 65.676V71.228C38.3985 71.26 38.2278 71.292 37.9931 71.324C37.7691 71.356 37.5345 71.372 37.2891 71.372C37.0545 71.372 36.8411 71.356 36.6491 71.324C36.4678 71.292 36.3131 71.228 36.1851 71.132C36.0571 71.036 35.9558 70.908 35.8811 70.748C35.8171 70.5774 35.7851 70.3587 35.7851 70.092V65.292C35.7851 65.004 35.8438 64.7694 35.9611 64.588C36.0891 64.4067 36.2598 64.2414 36.4731 64.092C36.8358 63.836 37.2891 63.628 37.8331 63.468C38.3878 63.308 39.0011 63.228 39.6731 63.228C40.8785 63.228 41.8065 63.4947 42.4571 64.028C43.1078 64.5507 43.4331 65.2814 43.4331 66.22V71.228C43.3265 71.26 43.1558 71.292 42.9211 71.324C42.6971 71.356 42.4625 71.372 42.2171 71.372C41.9825 71.372 41.7691 71.356 41.5771 71.324C41.3958 71.292 41.2411 71.228 41.1131 71.132C40.9851 71.036 40.8838 70.908 40.8091 70.748C40.7451 70.5774 40.7131 70.3587 40.7131 70.092V66.316ZM45.0493 61.308C45.0493 60.9027 45.1826 60.5614 45.4493 60.284C45.7266 60.0067 46.0893 59.868 46.5373 59.868C46.9853 59.868 47.3426 60.0067 47.6093 60.284C47.8866 60.5614 48.0253 60.9027 48.0253 61.308C48.0253 61.7134 47.8866 62.0547 47.6093 62.332C47.3426 62.6094 46.9853 62.748 46.5373 62.748C46.0893 62.748 45.7266 62.6094 45.4493 62.332C45.1826 62.0547 45.0493 61.7134 45.0493 61.308ZM47.8973 71.228C47.7799 71.2494 47.6039 71.276 47.3693 71.308C47.1453 71.3507 46.9159 71.372 46.6813 71.372C46.4466 71.372 46.2333 71.356 46.0413 71.324C45.8599 71.292 45.7053 71.228 45.5773 71.132C45.4493 71.036 45.3479 70.908 45.2733 70.748C45.2093 70.5774 45.1773 70.3587 45.1773 70.092V63.58C45.2946 63.5587 45.4653 63.532 45.6893 63.5C45.9239 63.4574 46.1586 63.436 46.3932 63.436C46.6279 63.436 46.8359 63.452 47.0173 63.484C47.2093 63.516 47.3693 63.58 47.4973 63.676C47.6253 63.772 47.7213 63.9054 47.7853 64.076C47.8599 64.236 47.8973 64.4494 47.8973 64.716V71.228ZM54.5569 66.316C54.5569 65.9854 54.4609 65.7454 54.2689 65.596C54.0875 65.436 53.8369 65.356 53.5169 65.356C53.3035 65.356 53.0902 65.3827 52.8769 65.436C52.6742 65.4894 52.4982 65.5694 52.3489 65.676V71.228C52.2422 71.26 52.0715 71.292 51.8369 71.324C51.6129 71.356 51.3782 71.372 51.1329 71.372C50.8982 71.372 50.6849 71.356 50.4929 71.324C50.3115 71.292 50.1569 71.228 50.0289 71.132C49.9009 71.036 49.7995 70.908 49.7249 70.748C49.6609 70.5774 49.6289 70.3587 49.6289 70.092V65.292C49.6289 65.004 49.6875 64.7694 49.8049 64.588C49.9329 64.4067 50.1035 64.2414 50.3169 64.092C50.6795 63.836 51.1329 63.628 51.6769 63.468C52.2315 63.308 52.8449 63.228 53.5169 63.228C54.7222 63.228 55.6502 63.4947 56.3009 64.028C56.9515 64.5507 57.2769 65.2814 57.2769 66.22V71.228C57.1702 71.26 56.9995 71.292 56.7649 71.324C56.5409 71.356 56.3062 71.372 56.0609 71.372C55.8262 71.372 55.6129 71.356 55.4209 71.324C55.2395 71.292 55.0849 71.228 54.9569 71.132C54.8289 71.036 54.7275 70.908 54.6529 70.748C54.5889 70.5774 54.5569 70.3587 54.5569 70.092V66.316ZM62.749 63.228C63.357 63.228 63.9063 63.308 64.397 63.468C64.8983 63.6174 65.3197 63.8147 65.661 64.06C65.8743 64.2094 66.0397 64.3747 66.157 64.556C66.285 64.7374 66.349 64.972 66.349 65.26V70.86C66.349 71.4254 66.2423 71.9107 66.029 72.316C65.8157 72.732 65.5223 73.0734 65.149 73.34C64.7863 73.6174 64.3543 73.82 63.853 73.948C63.3623 74.076 62.8343 74.14 62.269 74.14C61.2983 74.14 60.5357 74.0067 59.981 73.74C59.4263 73.484 59.149 73.0627 59.149 72.476C59.149 72.2307 59.197 72.012 59.293 71.82C59.3997 71.6387 59.517 71.5 59.645 71.404C59.9543 71.5747 60.301 71.7187 60.685 71.836C61.0797 71.9534 61.485 72.012 61.901 72.012C62.477 72.012 62.9357 71.916 63.277 71.724C63.6183 71.532 63.789 71.2227 63.789 70.796V70.54C63.3517 70.732 62.8183 70.828 62.189 70.828C61.709 70.828 61.2503 70.7587 60.813 70.62C60.3863 70.4707 60.0077 70.2467 59.677 69.948C59.357 69.6387 59.0957 69.244 58.893 68.764C58.701 68.284 58.605 67.7134 58.605 67.052C58.605 66.4014 58.7063 65.836 58.909 65.356C59.1223 64.876 59.4103 64.4814 59.773 64.172C60.1463 63.852 60.5837 63.6174 61.085 63.468C61.597 63.308 62.1517 63.228 62.749 63.228ZM63.741 65.548C63.6663 65.5054 63.5543 65.4627 63.405 65.42C63.2663 65.3774 63.0903 65.356 62.877 65.356C62.3543 65.356 61.9597 65.5054 61.693 65.804C61.437 66.092 61.309 66.508 61.309 67.052C61.309 67.6707 61.437 68.1187 61.693 68.396C61.9597 68.6627 62.2957 68.796 62.701 68.796C63.1383 68.796 63.485 68.6947 63.741 68.492V65.548ZM80.1183 71.18C80.0009 71.212 79.8143 71.244 79.5583 71.276C79.3129 71.308 79.0676 71.324 78.8223 71.324C78.5769 71.324 78.3583 71.3027 78.1663 71.26C77.9849 71.228 77.8303 71.164 77.7023 71.068C77.5743 70.972 77.4783 70.8387 77.4143 70.668C77.3503 70.4974 77.3183 70.2734 77.3183 69.996V67.5H74.2463V71.18C74.1289 71.212 73.9423 71.244 73.6863 71.276C73.4409 71.308 73.1956 71.324 72.9503 71.324C72.7049 71.324 72.4863 71.3027 72.2943 71.26C72.1129 71.228 71.9583 71.164 71.8303 71.068C71.7023 70.972 71.6063 70.8387 71.5423 70.668C71.4783 70.4974 71.4463 70.2734 71.4463 69.996V61.548C71.5636 61.5267 71.7503 61.5 72.0063 61.468C72.2623 61.4254 72.5076 61.404 72.7423 61.404C72.9876 61.404 73.2009 61.4254 73.3823 61.468C73.5743 61.5 73.7343 61.564 73.8623 61.66C73.9903 61.756 74.0863 61.8894 74.1503 62.06C74.2143 62.2307 74.2463 62.4547 74.2463 62.732V65.292H77.3183V61.548C77.4356 61.5267 77.6223 61.5 77.8783 61.468C78.1343 61.4254 78.3796 61.404 78.6143 61.404C78.8596 61.404 79.0729 61.4254 79.2543 61.468C79.4463 61.5 79.6063 61.564 79.7343 61.66C79.8623 61.756 79.9583 61.8894 80.0223 62.06C80.0863 62.2307 80.1183 62.4547 80.1183 62.732V71.18ZM90.0363 67.356C90.0363 68.0174 89.9349 68.6094 89.7323 69.132C89.5296 69.644 89.2416 70.076 88.8683 70.428C88.5056 70.78 88.0683 71.0467 87.5563 71.228C87.0443 71.4094 86.4736 71.5 85.8443 71.5C85.2149 71.5 84.6443 71.404 84.1323 71.212C83.6203 71.02 83.1776 70.748 82.8043 70.396C82.4416 70.0334 82.1589 69.596 81.9563 69.084C81.7536 68.572 81.6523 67.996 81.6523 67.356C81.6523 66.7267 81.7536 66.156 81.9563 65.644C82.1589 65.132 82.4416 64.7 82.8043 64.348C83.1776 63.9854 83.6203 63.708 84.1323 63.516C84.6443 63.324 85.2149 63.228 85.8443 63.228C86.4736 63.228 87.0443 63.3294 87.5563 63.532C88.0683 63.724 88.5056 64.0014 88.8683 64.364C89.2416 64.716 89.5296 65.148 89.7323 65.66C89.9349 66.172 90.0363 66.7374 90.0363 67.356ZM84.4363 67.356C84.4363 68.0067 84.5589 68.508 84.8043 68.86C85.0603 69.2014 85.4123 69.372 85.8602 69.372C86.3083 69.372 86.6496 69.196 86.8843 68.844C87.1296 68.492 87.2523 67.996 87.2523 67.356C87.2523 66.716 87.1296 66.2254 86.8843 65.884C86.6389 65.532 86.2923 65.356 85.8443 65.356C85.3963 65.356 85.0496 65.532 84.8043 65.884C84.5589 66.2254 84.4363 66.716 84.4363 67.356ZM91.3633 63.58C91.4699 63.548 91.6353 63.516 91.8593 63.484C92.0939 63.452 92.3339 63.436 92.5793 63.436C92.8139 63.436 93.0219 63.452 93.2033 63.484C93.3953 63.516 93.5553 63.58 93.6833 63.676C93.8113 63.772 93.9073 63.9054 93.9713 64.076C94.0459 64.236 94.0833 64.4494 94.0833 64.716V68.156C94.0833 68.5934 94.1899 68.908 94.4033 69.1C94.6166 69.2814 94.9259 69.372 95.3313 69.372C95.5766 69.372 95.7739 69.3507 95.9233 69.308C96.0833 69.2654 96.2059 69.2227 96.2913 69.18V63.58C96.3979 63.548 96.5633 63.516 96.7873 63.484C97.0219 63.452 97.2619 63.436 97.5073 63.436C97.7419 63.436 97.9499 63.452 98.1313 63.484C98.3233 63.516 98.4833 63.58 98.6112 63.676C98.7393 63.772 98.8353 63.9054 98.8993 64.076C98.9739 64.236 99.0113 64.4494 99.0113 64.716V69.58C99.0113 70.1134 98.7873 70.5134 98.3393 70.78C97.9659 71.0147 97.5179 71.1907 96.9953 71.308C96.4833 71.436 95.9233 71.5 95.3153 71.5C94.7393 71.5 94.2059 71.436 93.7153 71.308C93.2353 71.18 92.8193 70.9827 92.4673 70.716C92.1153 70.4494 91.8433 70.108 91.6513 69.692C91.4593 69.2654 91.3633 68.7534 91.3633 68.156V63.58ZM103.396 71.228C103.289 71.26 103.118 71.292 102.884 71.324C102.66 71.356 102.425 71.372 102.18 71.372C101.945 71.372 101.732 71.356 101.54 71.324C101.358 71.292 101.204 71.228 101.076 71.132C100.948 71.036 100.846 70.908 100.772 70.748C100.708 70.5774 100.676 70.3587 100.676 70.092V65.292C100.676 65.0467 100.718 64.8387 100.804 64.668C100.9 64.4867 101.033 64.3267 101.204 64.188C101.374 64.0494 101.582 63.9267 101.828 63.82C102.084 63.7027 102.356 63.6014 102.644 63.516C102.932 63.4307 103.23 63.3667 103.54 63.324C103.849 63.2707 104.158 63.244 104.468 63.244C104.98 63.244 105.385 63.3454 105.684 63.548C105.982 63.74 106.132 64.06 106.132 64.508C106.132 64.6574 106.11 64.8067 106.068 64.956C106.025 65.0947 105.972 65.2227 105.908 65.34C105.684 65.34 105.454 65.3507 105.22 65.372C104.985 65.3934 104.756 65.4254 104.532 65.468C104.308 65.5107 104.094 65.5587 103.892 65.612C103.7 65.6547 103.534 65.708 103.396 65.772V71.228ZM113.814 68.924C113.814 69.7347 113.51 70.3694 112.902 70.828C112.294 71.2867 111.398 71.516 110.214 71.516C109.766 71.516 109.35 71.484 108.966 71.42C108.582 71.356 108.251 71.26 107.974 71.132C107.707 70.9934 107.494 70.8227 107.334 70.62C107.185 70.4174 107.11 70.1774 107.11 69.9C107.11 69.644 107.163 69.4307 107.27 69.26C107.377 69.0787 107.505 68.9294 107.654 68.812C107.963 68.9827 108.315 69.1374 108.71 69.276C109.115 69.404 109.579 69.468 110.102 69.468C110.433 69.468 110.683 69.42 110.854 69.324C111.035 69.228 111.126 69.1 111.126 68.94C111.126 68.7907 111.062 68.6734 110.934 68.588C110.806 68.5027 110.593 68.4334 110.294 68.38L109.814 68.284C108.886 68.1027 108.193 67.82 107.734 67.436C107.286 67.0414 107.062 66.4814 107.062 65.756C107.062 65.3614 107.147 65.004 107.318 64.684C107.489 64.364 107.729 64.0974 108.038 63.884C108.347 63.6707 108.715 63.5054 109.142 63.388C109.579 63.2707 110.059 63.212 110.582 63.212C110.977 63.212 111.345 63.244 111.686 63.308C112.038 63.3614 112.342 63.4467 112.598 63.564C112.854 63.6814 113.057 63.836 113.206 64.028C113.355 64.2094 113.43 64.428 113.43 64.684C113.43 64.9294 113.382 65.1427 113.286 65.324C113.201 65.4947 113.089 65.6387 112.95 65.756C112.865 65.7027 112.737 65.6494 112.566 65.596C112.395 65.532 112.209 65.4787 112.006 65.436C111.803 65.3827 111.595 65.34 111.382 65.308C111.179 65.276 110.993 65.26 110.822 65.26C110.47 65.26 110.198 65.3027 110.006 65.388C109.814 65.4627 109.718 65.5854 109.718 65.756C109.718 65.8734 109.771 65.9694 109.878 66.044C109.985 66.1187 110.187 66.188 110.486 66.252L110.982 66.364C112.006 66.5987 112.731 66.924 113.158 67.34C113.595 67.7454 113.814 68.2734 113.814 68.924Z" fill="#AC3F45"/>
<path d="M375.262 68.578L376.506 62.0018H378.404L376.354 71.244H374.437L372.932 65.0614L371.428 71.244H369.511L367.46 62.0018H369.358L370.609 68.5653L372.132 62.0018H373.745L375.262 68.578ZM382.276 71.371C381.269 71.371 380.448 71.0621 379.813 70.4442C379.182 69.8264 378.867 69.0033 378.867 67.975V67.7972C378.867 67.1075 379 66.4917 379.267 65.9501C379.534 65.4042 379.91 64.9852 380.397 64.6932C380.888 64.397 381.446 64.2489 382.073 64.2489C383.012 64.2489 383.751 64.5451 384.288 65.1376C384.83 65.73 385.101 66.57 385.101 67.6576V68.4066H380.727C380.786 68.8552 380.964 69.2149 381.26 69.4857C381.561 69.7566 381.939 69.892 382.396 69.892C383.103 69.892 383.655 69.6359 384.053 69.1239L384.955 70.1332C384.68 70.5225 384.307 70.8272 383.837 71.0472C383.368 71.2631 382.847 71.371 382.276 71.371ZM382.066 65.7343C381.702 65.7343 381.406 65.857 381.178 66.1024C380.953 66.3479 380.81 66.6991 380.746 67.1561H383.298V67.0101C383.289 66.6039 383.179 66.2907 382.968 66.0707C382.756 65.8464 382.456 65.7343 382.066 65.7343ZM389.309 71.371C388.302 71.371 387.481 71.0621 386.846 70.4442C386.216 69.8264 385.9 69.0033 385.9 67.975V67.7972C385.9 67.1075 386.034 66.4917 386.3 65.9501C386.567 65.4042 386.944 64.9852 387.43 64.6932C387.921 64.397 388.48 64.2489 389.106 64.2489C390.045 64.2489 390.784 64.5451 391.321 65.1376C391.863 65.73 392.134 66.57 392.134 67.6576V68.4066H387.76C387.819 68.8552 387.997 69.2149 388.293 69.4857C388.594 69.7566 388.973 69.892 389.43 69.892C390.136 69.892 390.689 69.6359 391.086 69.1239L391.988 70.1332C391.713 70.5225 391.34 70.8272 390.871 71.0472C390.401 71.2631 389.88 71.371 389.309 71.371ZM389.1 65.7343C388.736 65.7343 388.439 65.857 388.211 66.1024C387.987 66.3479 387.843 66.6991 387.779 67.1561H390.331V67.0101C390.323 66.6039 390.213 66.2907 390.001 66.0707C389.789 65.8464 389.489 65.7343 389.1 65.7343ZM395.676 68.4891L395.016 69.1493V71.244H393.181V61.494H395.016V66.8959L395.371 66.4388L397.129 64.3759H399.332L396.85 67.2386L399.548 71.244H397.44L395.676 68.4891ZM402.062 71.244H400.221V61.494H402.062V71.244ZM406.143 68.6478L407.413 64.3759H409.38L406.619 72.3104L406.467 72.6722C406.056 73.5694 405.379 74.0179 404.436 74.0179C404.169 74.0179 403.898 73.9777 403.623 73.8973V72.5072L403.902 72.5135C404.249 72.5135 404.507 72.4607 404.677 72.3549C404.85 72.2491 404.986 72.0734 405.083 71.828L405.299 71.2631L402.893 64.3759H404.867L406.143 68.6478Z" fill="black"/>
<path d="M12.192 24.904C12.016 24.952 11.744 25 11.376 25.048C11.008 25.096 10.648 25.12 10.296 25.12C9.56 25.12 9.008 25 8.64 24.76C8.272 24.504 8.088 23.976 8.088 23.176V19.936C7.688 19.344 7.256 18.688 6.792 17.968C6.328 17.248 5.872 16.512 5.424 15.76C4.976 15.008 4.56 14.272 4.176 13.552C3.792 12.816 3.48 12.144 3.24 11.536C3.448 11.248 3.728 10.984 4.08 10.744C4.448 10.504 4.896 10.384 5.424 10.384C6.048 10.384 6.552 10.512 6.936 10.768C7.336 11.024 7.712 11.504 8.064 12.208L10.056 16.216H10.2C10.424 15.72 10.616 15.272 10.776 14.872C10.952 14.456 11.12 14.048 11.28 13.648C11.44 13.232 11.608 12.808 11.784 12.376C11.96 11.928 12.16 11.416 12.384 10.84C12.672 10.696 12.992 10.584 13.344 10.504C13.696 10.424 14.032 10.384 14.352 10.384C14.912 10.384 15.384 10.536 15.768 10.84C16.168 11.128 16.368 11.568 16.368 12.16C16.368 12.352 16.328 12.584 16.248 12.856C16.168 13.128 15.984 13.544 15.696 14.104C15.408 14.648 14.984 15.392 14.424 16.336C13.88 17.28 13.136 18.512 12.192 20.032V24.904ZM29.0231 19.168C29.0231 20.16 28.8711 21.048 28.5671 21.832C28.2631 22.6 27.8311 23.248 27.2711 23.776C26.7271 24.304 26.0711 24.704 25.3031 24.976C24.5351 25.248 23.6791 25.384 22.7351 25.384C21.7911 25.384 20.9351 25.24 20.1671 24.952C19.3991 24.664 18.7351 24.256 18.1751 23.728C17.6311 23.184 17.2071 22.528 16.9031 21.76C16.5991 20.992 16.4471 20.128 16.4471 19.168C16.4471 18.224 16.5991 17.368 16.9031 16.6C17.2071 15.832 17.6311 15.184 18.1751 14.656C18.7351 14.112 19.3991 13.696 20.1671 13.408C20.9351 13.12 21.7911 12.976 22.7351 12.976C23.6791 12.976 24.5351 13.128 25.3031 13.432C26.0711 13.72 26.7271 14.136 27.2711 14.68C27.8311 15.208 28.2631 15.856 28.5671 16.624C28.8711 17.392 29.0231 18.24 29.0231 19.168ZM20.6231 19.168C20.6231 20.144 20.8071 20.896 21.1751 21.424C21.5591 21.936 22.0871 22.192 22.7591 22.192C23.4311 22.192 23.9431 21.928 24.2951 21.4C24.6631 20.872 24.8471 20.128 24.8471 19.168C24.8471 18.208 24.6631 17.472 24.2951 16.96C23.9271 16.432 23.4071 16.168 22.7351 16.168C22.0631 16.168 21.5431 16.432 21.1751 16.96C20.8071 17.472 20.6231 18.208 20.6231 19.168ZM31.0136 13.504C31.1736 13.456 31.4216 13.408 31.7576 13.36C32.1096 13.312 32.4696 13.288 32.8376 13.288C33.1896 13.288 33.5016 13.312 33.7736 13.36C34.0616 13.408 34.3016 13.504 34.4936 13.648C34.6856 13.792 34.8296 13.992 34.9256 14.248C35.0376 14.488 35.0936 14.808 35.0936 15.208V20.368C35.0936 21.024 35.2536 21.496 35.5736 21.784C35.8936 22.056 36.3576 22.192 36.9656 22.192C37.3336 22.192 37.6296 22.16 37.8536 22.096C38.0936 22.032 38.2776 21.968 38.4056 21.904V13.504C38.5656 13.456 38.8136 13.408 39.1496 13.36C39.5016 13.312 39.8616 13.288 40.2296 13.288C40.5816 13.288 40.8936 13.312 41.1656 13.36C41.4536 13.408 41.6936 13.504 41.8856 13.648C42.0776 13.792 42.2216 13.992 42.3176 14.248C42.4296 14.488 42.4856 14.808 42.4856 15.208V22.504C42.4856 23.304 42.1496 23.904 41.4776 24.304C40.9176 24.656 40.2456 24.92 39.4616 25.096C38.6936 25.288 37.8536 25.384 36.9416 25.384C36.0776 25.384 35.2776 25.288 34.5416 25.096C33.8216 24.904 33.1976 24.608 32.6696 24.208C32.1416 23.808 31.7336 23.296 31.4456 22.672C31.1576 22.032 31.0136 21.264 31.0136 20.368V13.504ZM49.0624 24.976C48.9024 25.024 48.6464 25.072 48.2944 25.12C47.9584 25.168 47.6064 25.192 47.2384 25.192C46.8864 25.192 46.5664 25.168 46.2784 25.12C46.0064 25.072 45.7744 24.976 45.5824 24.832C45.3904 24.688 45.2384 24.496 45.1264 24.256C45.0304 24 44.9824 23.672 44.9824 23.272V16.072C44.9824 15.704 45.0464 15.392 45.1744 15.136C45.3184 14.864 45.5184 14.624 45.7744 14.416C46.0304 14.208 46.3424 14.024 46.7104 13.864C47.0944 13.688 47.5024 13.536 47.9344 13.408C48.3664 13.28 48.8144 13.184 49.2784 13.12C49.7424 13.04 50.2064 13 50.6704 13C51.4384 13 52.0464 13.152 52.4944 13.456C52.9424 13.744 53.1664 14.224 53.1664 14.896C53.1664 15.12 53.1344 15.344 53.0704 15.568C53.0064 15.776 52.9264 15.968 52.8304 16.144C52.4944 16.144 52.1504 16.16 51.7984 16.192C51.4464 16.224 51.1024 16.272 50.7664 16.336C50.4304 16.4 50.1104 16.472 49.8064 16.552C49.5184 16.616 49.2704 16.696 49.0624 16.792V24.976ZM69.4943 21.52C69.4943 22.736 69.0383 23.688 68.1263 24.376C67.2143 25.064 65.8703 25.408 64.0943 25.408C63.4223 25.408 62.7983 25.36 62.2223 25.264C61.6463 25.168 61.1503 25.024 60.7343 24.832C60.3343 24.624 60.0143 24.368 59.7743 24.064C59.5503 23.76 59.4383 23.4 59.4383 22.984C59.4383 22.6 59.5183 22.28 59.6783 22.024C59.8383 21.752 60.0303 21.528 60.2543 21.352C60.7183 21.608 61.2463 21.84 61.8383 22.048C62.4463 22.24 63.1423 22.336 63.9263 22.336C64.4223 22.336 64.7983 22.264 65.0543 22.12C65.3263 21.976 65.4622 21.784 65.4622 21.544C65.4622 21.32 65.3663 21.144 65.1743 21.016C64.9823 20.888 64.6623 20.784 64.2143 20.704L63.4943 20.56C62.1023 20.288 61.0623 19.864 60.3743 19.288C59.7023 18.696 59.3663 17.856 59.3663 16.768C59.3663 16.176 59.4943 15.64 59.7503 15.16C60.0063 14.68 60.3663 14.28 60.8303 13.96C61.2943 13.64 61.8463 13.392 62.4863 13.216C63.1423 13.04 63.8623 12.952 64.6463 12.952C65.2383 12.952 65.7903 13 66.3023 13.096C66.8303 13.176 67.2863 13.304 67.6703 13.48C68.0543 13.656 68.3583 13.888 68.5823 14.176C68.8063 14.448 68.9183 14.776 68.9183 15.16C68.9183 15.528 68.8463 15.848 68.7023 16.12C68.5743 16.376 68.4063 16.592 68.1983 16.768C68.0703 16.688 67.8783 16.608 67.6223 16.528C67.3663 16.432 67.0863 16.352 66.7823 16.288C66.4783 16.208 66.1663 16.144 65.8463 16.096C65.5423 16.048 65.2623 16.024 65.0063 16.024C64.4783 16.024 64.0703 16.088 63.7823 16.216C63.4943 16.328 63.3503 16.512 63.3503 16.768C63.3503 16.944 63.4303 17.088 63.5903 17.2C63.7503 17.312 64.0543 17.416 64.5023 17.512L65.2463 17.68C66.7823 18.032 67.8703 18.52 68.5103 19.144C69.1663 19.752 69.4943 20.544 69.4943 21.52ZM75.5468 20.992C75.5468 21.408 75.6748 21.704 75.9308 21.88C76.2028 22.056 76.5788 22.144 77.0588 22.144C77.2988 22.144 77.5468 22.128 77.8028 22.096C78.0588 22.048 78.2828 21.992 78.4748 21.928C78.6188 22.104 78.7388 22.304 78.8348 22.528C78.9468 22.736 79.0028 22.992 79.0028 23.296C79.0028 23.904 78.7708 24.4 78.3068 24.784C77.8588 25.168 77.0588 25.36 75.9068 25.36C74.4988 25.36 73.4108 25.04 72.6428 24.4C71.8908 23.76 71.5148 22.72 71.5148 21.28V11.008C71.6908 10.96 71.9388 10.912 72.2588 10.864C72.5948 10.8 72.9468 10.768 73.3148 10.768C74.0188 10.768 74.5628 10.896 74.9468 11.152C75.3468 11.392 75.5468 11.912 75.5468 12.712V14.248H78.6908C78.7868 14.424 78.8748 14.648 78.9548 14.92C79.0508 15.176 79.0988 15.464 79.0988 15.784C79.0988 16.344 78.9708 16.752 78.7148 17.008C78.4748 17.248 78.1468 17.368 77.7308 17.368H75.5468V20.992ZM86.0681 22.408C86.3401 22.408 86.6361 22.384 86.9561 22.336C87.2921 22.272 87.5401 22.192 87.7001 22.096V20.176L85.9721 20.32C85.5241 20.352 85.1561 20.448 84.8681 20.608C84.5801 20.768 84.4361 21.008 84.4361 21.328C84.4361 21.648 84.5561 21.912 84.7961 22.12C85.0521 22.312 85.4761 22.408 86.0681 22.408ZM85.8761 12.976C86.7401 12.976 87.5241 13.064 88.2281 13.24C88.9481 13.416 89.5561 13.688 90.0521 14.056C90.5641 14.408 90.9561 14.864 91.2281 15.424C91.5001 15.968 91.6361 16.616 91.6361 17.368V22.744C91.6361 23.16 91.5161 23.504 91.2761 23.776C91.0521 24.032 90.7801 24.256 90.4601 24.448C89.4201 25.072 87.9561 25.384 86.0681 25.384C85.2201 25.384 84.4521 25.304 83.7641 25.144C83.0921 24.984 82.5081 24.744 82.0121 24.424C81.5321 24.104 81.1561 23.696 80.8841 23.2C80.6281 22.704 80.5001 22.128 80.5001 21.472C80.5001 20.368 80.8281 19.52 81.4841 18.928C82.1401 18.336 83.1561 17.968 84.5321 17.824L87.6761 17.488V17.32C87.6761 16.856 87.4681 16.528 87.0521 16.336C86.6521 16.128 86.0681 16.024 85.3001 16.024C84.6921 16.024 84.1001 16.088 83.5241 16.216C82.9481 16.344 82.4281 16.504 81.9641 16.696C81.7561 16.552 81.5801 16.336 81.4361 16.048C81.2921 15.744 81.2201 15.432 81.2201 15.112C81.2201 14.696 81.3161 14.368 81.5081 14.128C81.7161 13.872 82.0281 13.656 82.4441 13.48C82.9081 13.304 83.4521 13.176 84.0761 13.096C84.7161 13.016 85.3161 12.976 85.8761 12.976ZM98.2108 20.992C98.2108 21.408 98.3388 21.704 98.5948 21.88C98.8668 22.056 99.2428 22.144 99.7228 22.144C99.9628 22.144 100.211 22.128 100.467 22.096C100.723 22.048 100.947 21.992 101.139 21.928C101.283 22.104 101.403 22.304 101.499 22.528C101.611 22.736 101.667 22.992 101.667 23.296C101.667 23.904 101.435 24.4 100.971 24.784C100.523 25.168 99.7228 25.36 98.5708 25.36C97.1628 25.36 96.0748 25.04 95.3068 24.4C94.5548 23.76 94.1788 22.72 94.1788 21.28V11.008C94.3548 10.96 94.6028 10.912 94.9228 10.864C95.2588 10.8 95.6108 10.768 95.9788 10.768C96.6828 10.768 97.2268 10.896 97.6108 11.152C98.0108 11.392 98.2108 11.912 98.2108 12.712V14.248H101.355C101.451 14.424 101.539 14.648 101.619 14.92C101.715 15.176 101.763 15.464 101.763 15.784C101.763 16.344 101.635 16.752 101.379 17.008C101.139 17.248 100.811 17.368 100.395 17.368H98.2108V20.992ZM103.644 10.096C103.644 9.488 103.844 8.976 104.244 8.56C104.66 8.144 105.204 7.936 105.876 7.936C106.548 7.936 107.084 8.144 107.484 8.56C107.9 8.976 108.108 9.488 108.108 10.096C108.108 10.704 107.9 11.216 107.484 11.632C107.084 12.048 106.548 12.256 105.876 12.256C105.204 12.256 104.66 12.048 104.244 11.632C103.844 11.216 103.644 10.704 103.644 10.096ZM107.916 24.976C107.74 25.008 107.476 25.048 107.124 25.096C106.788 25.16 106.444 25.192 106.092 25.192C105.74 25.192 105.42 25.168 105.132 25.12C104.86 25.072 104.628 24.976 104.436 24.832C104.244 24.688 104.092 24.496 103.98 24.256C103.884 24 103.836 23.672 103.836 23.272V13.504C104.012 13.472 104.268 13.432 104.604 13.384C104.956 13.32 105.308 13.288 105.66 13.288C106.012 13.288 106.324 13.312 106.596 13.36C106.884 13.408 107.124 13.504 107.316 13.648C107.508 13.792 107.652 13.992 107.748 14.248C107.86 14.488 107.916 14.808 107.916 15.208V24.976ZM120.354 21.52C120.354 22.736 119.898 23.688 118.986 24.376C118.074 25.064 116.73 25.408 114.954 25.408C114.282 25.408 113.658 25.36 113.082 25.264C112.506 25.168 112.01 25.024 111.594 24.832C111.194 24.624 110.874 24.368 110.634 24.064C110.41 23.76 110.298 23.4 110.298 22.984C110.298 22.6 110.378 22.28 110.538 22.024C110.698 21.752 110.89 21.528 111.114 21.352C111.578 21.608 112.106 21.84 112.698 22.048C113.306 22.24 114.002 22.336 114.786 22.336C115.282 22.336 115.658 22.264 115.914 22.12C116.186 21.976 116.322 21.784 116.322 21.544C116.322 21.32 116.226 21.144 116.034 21.016C115.842 20.888 115.522 20.784 115.074 20.704L114.354 20.56C112.962 20.288 111.922 19.864 111.234 19.288C110.562 18.696 110.226 17.856 110.226 16.768C110.226 16.176 110.354 15.64 110.61 15.16C110.866 14.68 111.226 14.28 111.69 13.96C112.154 13.64 112.706 13.392 113.346 13.216C114.002 13.04 114.722 12.952 115.506 12.952C116.098 12.952 116.65 13 117.162 13.096C117.69 13.176 118.146 13.304 118.53 13.48C118.914 13.656 119.218 13.888 119.442 14.176C119.666 14.448 119.778 14.776 119.778 15.16C119.778 15.528 119.706 15.848 119.562 16.12C119.434 16.376 119.266 16.592 119.058 16.768C118.93 16.688 118.738 16.608 118.482 16.528C118.226 16.432 117.946 16.352 117.642 16.288C117.338 16.208 117.026 16.144 116.706 16.096C116.402 16.048 116.122 16.024 115.866 16.024C115.338 16.024 114.93 16.088 114.642 16.216C114.354 16.328 114.21 16.512 114.21 16.768C114.21 16.944 114.29 17.088 114.45 17.2C114.61 17.312 114.914 17.416 115.362 17.512L116.106 17.68C117.642 18.032 118.73 18.52 119.37 19.144C120.026 19.752 120.354 20.544 120.354 21.52ZM126.406 20.992C126.406 21.408 126.534 21.704 126.79 21.88C127.062 22.056 127.438 22.144 127.918 22.144C128.158 22.144 128.406 22.128 128.662 22.096C128.918 22.048 129.142 21.992 129.334 21.928C129.478 22.104 129.598 22.304 129.694 22.528C129.806 22.736 129.862 22.992 129.862 23.296C129.862 23.904 129.63 24.4 129.166 24.784C128.718 25.168 127.918 25.36 126.766 25.36C125.358 25.36 124.27 25.04 123.502 24.4C122.75 23.76 122.374 22.72 122.374 21.28V11.008C122.55 10.96 122.798 10.912 123.118 10.864C123.454 10.8 123.806 10.768 124.174 10.768C124.878 10.768 125.422 10.896 125.806 11.152C126.206 11.392 126.406 11.912 126.406 12.712V14.248H129.55C129.646 14.424 129.734 14.648 129.814 14.92C129.91 15.176 129.958 15.464 129.958 15.784C129.958 16.344 129.83 16.752 129.574 17.008C129.334 17.248 129.006 17.368 128.59 17.368H126.406V20.992ZM131.84 10.096C131.84 9.488 132.04 8.976 132.44 8.56C132.856 8.144 133.4 7.936 134.072 7.936C134.744 7.936 135.28 8.144 135.68 8.56C136.096 8.976 136.304 9.488 136.304 10.096C136.304 10.704 136.096 11.216 135.68 11.632C135.28 12.048 134.744 12.256 134.072 12.256C133.4 12.256 132.856 12.048 132.44 11.632C132.04 11.216 131.84 10.704 131.84 10.096ZM136.112 24.976C135.936 25.008 135.672 25.048 135.32 25.096C134.984 25.16 134.64 25.192 134.288 25.192C133.936 25.192 133.616 25.168 133.328 25.12C133.056 25.072 132.824 24.976 132.632 24.832C132.44 24.688 132.288 24.496 132.176 24.256C132.08 24 132.032 23.672 132.032 23.272V13.504C132.208 13.472 132.464 13.432 132.8 13.384C133.152 13.32 133.504 13.288 133.855 13.288C134.208 13.288 134.52 13.312 134.792 13.36C135.08 13.408 135.32 13.504 135.512 13.648C135.704 13.792 135.848 13.992 135.944 14.248C136.056 14.488 136.112 14.808 136.112 15.208V24.976ZM145.285 16.192C144.885 16.192 144.501 16.256 144.133 16.384C143.781 16.512 143.469 16.704 143.197 16.96C142.941 17.2 142.733 17.504 142.573 17.872C142.413 18.24 142.333 18.672 142.333 19.168C142.333 20.16 142.613 20.904 143.173 21.4C143.749 21.896 144.445 22.144 145.261 22.144C145.741 22.144 146.157 22.088 146.509 21.976C146.861 21.864 147.173 21.744 147.445 21.616C147.765 21.84 148.005 22.088 148.165 22.36C148.325 22.616 148.405 22.928 148.405 23.296C148.405 23.952 148.093 24.464 147.469 24.832C146.845 25.184 145.981 25.36 144.877 25.36C143.869 25.36 142.957 25.216 142.141 24.928C141.325 24.624 140.621 24.208 140.029 23.68C139.453 23.136 139.005 22.488 138.685 21.736C138.365 20.984 138.205 20.152 138.205 19.24C138.205 18.184 138.373 17.264 138.709 16.48C139.061 15.68 139.533 15.024 140.125 14.512C140.717 14 141.397 13.616 142.165 13.36C142.949 13.104 143.773 12.976 144.637 12.976C145.789 12.976 146.677 13.184 147.301 13.6C147.925 14.016 148.237 14.552 148.237 15.208C148.237 15.512 148.165 15.8 148.021 16.072C147.877 16.328 147.709 16.552 147.517 16.744C147.245 16.616 146.917 16.496 146.533 16.384C146.149 16.256 145.733 16.192 145.285 16.192ZM160.057 21.52C160.057 22.736 159.601 23.688 158.689 24.376C157.777 25.064 156.433 25.408 154.657 25.408C153.985 25.408 153.361 25.36 152.785 25.264C152.209 25.168 151.713 25.024 151.297 24.832C150.897 24.624 150.577 24.368 150.337 24.064C150.113 23.76 150.001 23.4 150.001 22.984C150.001 22.6 150.081 22.28 150.241 22.024C150.401 21.752 150.593 21.528 150.817 21.352C151.281 21.608 151.809 21.84 152.401 22.048C153.009 22.24 153.705 22.336 154.489 22.336C154.985 22.336 155.361 22.264 155.617 22.12C155.889 21.976 156.025 21.784 156.025 21.544C156.025 21.32 155.929 21.144 155.737 21.016C155.545 20.888 155.225 20.784 154.777 20.704L154.057 20.56C152.665 20.288 151.625 19.864 150.937 19.288C150.265 18.696 149.929 17.856 149.929 16.768C149.929 16.176 150.057 15.64 150.313 15.16C150.569 14.68 150.929 14.28 151.393 13.96C151.857 13.64 152.409 13.392 153.049 13.216C153.705 13.04 154.425 12.952 155.209 12.952C155.801 12.952 156.353 13 156.865 13.096C157.393 13.176 157.849 13.304 158.233 13.48C158.617 13.656 158.921 13.888 159.145 14.176C159.369 14.448 159.481 14.776 159.481 15.16C159.481 15.528 159.409 15.848 159.265 16.12C159.137 16.376 158.969 16.592 158.761 16.768C158.633 16.688 158.441 16.608 158.185 16.528C157.929 16.432 157.649 16.352 157.345 16.288C157.041 16.208 156.729 16.144 156.409 16.096C156.105 16.048 155.825 16.024 155.569 16.024C155.041 16.024 154.633 16.088 154.345 16.216C154.057 16.328 153.913 16.512 153.913 16.768C153.913 16.944 153.993 17.088 154.153 17.2C154.313 17.312 154.617 17.416 155.065 17.512L155.809 17.68C157.345 18.032 158.433 18.52 159.073 19.144C159.729 19.752 160.057 20.544 160.057 21.52Z" fill="#AC3F45"/>
<path d="M419.613 69.7018L422.59 66.7248C422.772 66.5431 422.772 66.2486 422.59 66.0669C422.409 65.8852 422.114 65.8852 421.932 66.0669L419.75 68.2499C419.75 68.2499 419.53 68.4959 419.286 68.4907C419.048 68.4857 418.819 68.2499 418.819 68.2499L416.636 66.067C416.455 65.8853 416.16 65.8853 415.978 66.067C415.888 66.1578 415.842 66.2769 415.842 66.3959C415.842 66.515 415.888 66.634 415.978 66.7248L418.955 69.7018C419.137 69.8835 419.432 69.8835 419.613 69.7018Z" fill="black" stroke="black" stroke-width="0.5"/>
<path d="M24.312 371.788L24.3438 372.55C24.8473 371.957 25.5265 371.661 26.3813 371.661C27.342 371.661 27.9958 372.029 28.3428 372.766C28.5713 372.435 28.8675 372.169 29.2314 371.966C29.5996 371.763 30.0334 371.661 30.5327 371.661C32.0392 371.661 32.8052 372.459 32.8306 374.054V378.656H31.6562V374.124C31.6562 373.633 31.5441 373.267 31.3198 373.026C31.0955 372.78 30.7189 372.658 30.1899 372.658C29.7541 372.658 29.3923 372.789 29.1045 373.051C28.8167 373.309 28.6496 373.658 28.603 374.099V378.656H27.4224V374.156C27.4224 373.157 26.9336 372.658 25.9561 372.658C25.1859 372.658 24.659 372.986 24.3755 373.641V378.656H23.2012V371.788H24.312ZM34.2969 375.159C34.2969 374.486 34.4281 373.881 34.6904 373.343C34.957 372.806 35.3252 372.391 35.7949 372.099C36.2689 371.807 36.8084 371.661 37.4136 371.661C38.3488 371.661 39.1042 371.985 39.6797 372.632C40.2594 373.28 40.5493 374.141 40.5493 375.216V375.298C40.5493 375.967 40.4202 376.568 40.1621 377.101C39.9082 377.63 39.5422 378.043 39.064 378.339C38.59 378.635 38.0441 378.783 37.4263 378.783C36.4953 378.783 35.7399 378.459 35.1602 377.812C34.5846 377.164 34.2969 376.307 34.2969 375.241V375.159ZM35.4775 375.298C35.4775 376.06 35.6532 376.671 36.0044 377.133C36.3599 377.594 36.8338 377.825 37.4263 377.825C38.0229 377.825 38.4969 377.592 38.8481 377.126C39.1994 376.657 39.375 376.001 39.375 375.159C39.375 374.405 39.1951 373.796 38.8354 373.33C38.48 372.861 38.006 372.626 37.4136 372.626C36.8338 372.626 36.3662 372.856 36.0107 373.318C35.6553 373.779 35.4775 374.439 35.4775 375.298ZM43.1328 371.788L43.1709 372.651C43.6956 371.991 44.3812 371.661 45.2275 371.661C46.679 371.661 47.4111 372.48 47.4238 374.118V378.656H46.2495V374.111C46.2453 373.616 46.131 373.25 45.9067 373.013C45.6867 372.776 45.3418 372.658 44.8721 372.658C44.4912 372.658 44.1569 372.759 43.8691 372.962C43.5814 373.165 43.3571 373.432 43.1963 373.762V378.656H42.022V371.788H43.1328Z" fill="black"/>
<path d="M8.58244 345.044C8.58244 346.42 8.34757 347.442 7.87785 348.11C7.40812 348.779 6.67391 349.113 5.67521 349.113C4.68921 349.113 3.95923 348.787 3.48527 348.136C3.01131 347.48 2.76587 346.502 2.74894 345.203V343.635C2.74894 342.277 2.9838 341.267 3.45353 340.607C3.92326 339.947 4.65958 339.617 5.66251 339.617C6.65698 339.617 7.38908 339.937 7.8588 340.576C8.32853 341.21 8.56974 342.192 8.58244 343.521V345.044ZM7.40812 343.438C7.40812 342.444 7.26847 341.72 6.98917 341.267C6.70988 340.81 6.26766 340.582 5.66251 340.582C5.0616 340.582 4.62361 340.808 4.34855 341.261C4.07348 341.714 3.93172 342.41 3.92326 343.349V345.228C3.92326 346.227 4.06714 346.966 4.3549 347.444C4.64689 347.918 5.08699 348.155 5.67521 348.155C6.25496 348.155 6.68449 347.93 6.96378 347.482C7.24731 347.033 7.39542 346.327 7.40812 345.362V343.438Z" fill="black"/>
<path d="M6.6464 304.06H5.46574V296.233L3.09806 297.103V296.036L6.46232 294.773H6.6464V304.06Z" fill="black"/>
<path d="M8.84269 259.133H2.78703V258.289L5.98624 254.734C6.4602 254.197 6.78605 253.761 6.96378 253.427C7.14575 253.088 7.23673 252.739 7.23673 252.379C7.23673 251.897 7.09074 251.501 6.79874 251.192C6.50675 250.883 6.11743 250.729 5.63078 250.729C5.04679 250.729 4.59188 250.896 4.26603 251.23C3.94441 251.561 3.78361 252.022 3.78361 252.614H2.60929C2.60929 251.764 2.88224 251.076 3.42814 250.551C3.97827 250.027 4.71248 249.764 5.63078 249.764C6.48982 249.764 7.16902 249.991 7.66837 250.443C8.16772 250.892 8.4174 251.491 8.4174 252.24C8.4174 253.15 7.83764 254.233 6.67814 255.49L4.20255 258.175H8.84269V259.133Z" fill="black"/>
<path d="M4.49454 209.014H5.37687C5.93123 209.006 6.3671 208.86 6.68449 208.576C7.00187 208.293 7.16056 207.91 7.16056 207.427C7.16056 206.344 6.62101 205.802 5.54191 205.802C5.0341 205.802 4.62785 205.948 4.32316 206.24C4.0227 206.528 3.87247 206.911 3.87247 207.389H2.69816C2.69816 206.657 2.96476 206.05 3.49796 205.568C4.0354 205.081 4.71671 204.838 5.54191 204.838C6.41365 204.838 7.09708 205.068 7.5922 205.53C8.08732 205.991 8.33488 206.632 8.33488 207.453C8.33488 207.855 8.20369 208.244 7.94132 208.621C7.68318 208.997 7.32983 209.279 6.88126 209.465C7.38908 209.626 7.78052 209.892 8.05558 210.265C8.33488 210.637 8.47453 211.092 8.47453 211.63C8.47453 212.459 8.20369 213.117 7.66203 213.604C7.12036 214.09 6.41577 214.334 5.54826 214.334C4.68074 214.334 3.97404 214.099 3.42814 213.629C2.88647 213.159 2.61564 212.539 2.61564 211.769H3.7963C3.7963 212.256 3.95499 212.645 4.27238 212.937C4.58976 213.229 5.01505 213.375 5.54826 213.375C6.11531 213.375 6.54907 213.227 6.84953 212.931C7.14998 212.635 7.30021 212.209 7.30021 211.655C7.30021 211.118 7.13517 210.705 6.80509 210.417C6.47501 210.129 5.99894 209.981 5.37687 209.973H4.49454V209.014Z" fill="black"/>
<path d="M7.74454 166.176H9.02677V167.135H7.74454V169.28H6.56388V167.135H2.35538V166.443L6.49406 160.038H7.74454V166.176ZM3.68839 166.176H6.56388V161.644L6.42423 161.898L3.68839 166.176Z" fill="black"/>
<path d="M3.32658 119.72L3.7963 115.112H8.53165V116.197H4.79288L4.51359 118.717C4.96639 118.451 5.48055 118.317 6.05607 118.317C6.89819 118.317 7.56681 118.597 8.06193 119.155C8.55704 119.71 8.8046 120.461 8.8046 121.409C8.8046 122.361 8.54647 123.112 8.03019 123.662C7.51815 124.208 6.80086 124.481 5.87833 124.481C5.0616 124.481 4.3951 124.255 3.87882 123.802C3.36255 123.349 3.06844 122.723 2.9965 121.923H4.10734C4.17928 122.452 4.36759 122.852 4.67228 123.123C4.97697 123.389 5.37899 123.522 5.87833 123.522C6.42423 123.522 6.85164 123.336 7.16056 122.964C7.47371 122.591 7.63029 122.077 7.63029 121.421C7.63029 120.804 7.46102 120.308 7.12247 119.936C6.78816 119.559 6.34171 119.371 5.78312 119.371C5.27107 119.371 4.86906 119.483 4.57706 119.708L4.26603 119.961L3.32658 119.72Z" fill="black"/>
<path d="M96.8152 370.125V371.788H98.0974V372.696H96.8152V376.955C96.8152 377.23 96.8723 377.437 96.9866 377.577C97.1008 377.712 97.2955 377.78 97.5706 377.78C97.706 377.78 97.8922 377.755 98.1292 377.704V378.656C97.8202 378.741 97.5198 378.783 97.2278 378.783C96.703 378.783 96.3074 378.624 96.0408 378.307C95.7742 377.99 95.6409 377.539 95.6409 376.955V372.696H94.3904V371.788H95.6409V370.125H96.8152ZM103.715 377.977C103.258 378.514 102.587 378.783 101.703 378.783C100.971 378.783 100.412 378.571 100.027 378.148C99.6462 377.721 99.4537 377.09 99.4495 376.257V371.788H100.624V376.225C100.624 377.266 101.047 377.786 101.893 377.786C102.79 377.786 103.387 377.452 103.683 376.784V371.788H104.858V378.656H103.74L103.715 377.977ZM109.498 378.783C108.567 378.783 107.809 378.478 107.225 377.869C106.641 377.255 106.349 376.437 106.349 375.412V375.197C106.349 374.515 106.478 373.908 106.737 373.375C106.999 372.837 107.363 372.418 107.828 372.118C108.298 371.813 108.806 371.661 109.352 371.661C110.245 371.661 110.939 371.955 111.434 372.543C111.929 373.132 112.177 373.974 112.177 375.07V375.558H107.524C107.541 376.236 107.737 376.784 108.114 377.203C108.495 377.617 108.977 377.825 109.561 377.825C109.976 377.825 110.327 377.74 110.615 377.571C110.903 377.401 111.155 377.177 111.37 376.898L112.088 377.456C111.512 378.341 110.649 378.783 109.498 378.783ZM109.352 372.626C108.878 372.626 108.48 372.799 108.158 373.146C107.837 373.489 107.638 373.972 107.562 374.594H111.002V374.505C110.968 373.908 110.808 373.447 110.52 373.121C110.232 372.791 109.843 372.626 109.352 372.626Z" fill="black"/>
<path d="M165.187 377.037L166.507 371.788H167.681L165.682 378.656H164.73L163.06 373.451L161.435 378.656H160.483L158.49 371.788H159.658L161.01 376.93L162.61 371.788H163.555L165.187 377.037ZM171.731 378.783C170.8 378.783 170.043 378.478 169.459 377.869C168.875 377.255 168.583 376.437 168.583 375.412V375.197C168.583 374.515 168.712 373.908 168.97 373.375C169.232 372.837 169.596 372.418 170.062 372.118C170.531 371.813 171.039 371.661 171.585 371.661C172.478 371.661 173.172 371.955 173.667 372.543C174.162 373.132 174.41 373.974 174.41 375.07V375.558H169.757C169.774 376.236 169.971 376.784 170.347 377.203C170.728 377.617 171.211 377.825 171.795 377.825C172.209 377.825 172.561 377.74 172.848 377.571C173.136 377.401 173.388 377.177 173.604 376.898L174.321 377.456C173.746 378.341 172.882 378.783 171.731 378.783ZM171.585 372.626C171.111 372.626 170.713 372.799 170.392 373.146C170.07 373.489 169.871 373.972 169.795 374.594H173.236V374.505C173.202 373.908 173.041 373.447 172.753 373.121C172.465 372.791 172.076 372.626 171.585 372.626ZM175.489 375.165C175.489 374.111 175.739 373.265 176.238 372.626C176.737 371.983 177.391 371.661 178.199 371.661C179.003 371.661 179.64 371.936 180.11 372.486V368.906H181.284V378.656H180.205L180.148 377.92C179.678 378.495 179.025 378.783 178.187 378.783C177.391 378.783 176.742 378.457 176.238 377.806C175.739 377.154 175.489 376.303 175.489 375.254V375.165ZM176.663 375.298C176.663 376.077 176.824 376.686 177.146 377.126C177.467 377.566 177.912 377.786 178.479 377.786C179.224 377.786 179.767 377.452 180.11 376.784V373.629C179.759 372.981 179.219 372.658 178.491 372.658C177.916 372.658 177.467 372.88 177.146 373.324C176.824 373.768 176.663 374.426 176.663 375.298Z" fill="black"/>
<path d="M231.552 370.125V371.788H232.835V372.696H231.552V376.955C231.552 377.23 231.61 377.437 231.724 377.577C231.838 377.712 232.033 377.78 232.308 377.78C232.443 377.78 232.629 377.755 232.866 377.704V378.656C232.558 378.741 232.257 378.783 231.965 378.783C231.44 378.783 231.045 378.624 230.778 378.307C230.511 377.99 230.378 377.539 230.378 376.955V372.696H229.128V371.788H230.378V370.125H231.552ZM235.386 372.62C235.907 371.981 236.584 371.661 237.418 371.661C238.869 371.661 239.601 372.48 239.614 374.118V378.656H238.44V374.111C238.435 373.616 238.321 373.25 238.097 373.013C237.877 372.776 237.532 372.658 237.062 372.658C236.681 372.658 236.347 372.759 236.059 372.962C235.772 373.165 235.547 373.432 235.386 373.762V378.656H234.212V368.906H235.386V372.62ZM245.613 377.977C245.156 378.514 244.485 378.783 243.6 378.783C242.868 378.783 242.31 378.571 241.925 378.148C241.544 377.721 241.351 377.09 241.347 376.257V371.788H242.521V376.225C242.521 377.266 242.944 377.786 243.791 377.786C244.688 377.786 245.285 377.452 245.581 376.784V371.788H246.755V378.656H245.638L245.613 377.977Z" fill="black"/>
<path d="M294.42 378.656V372.696H293.335V371.788H294.42V371.083C294.42 370.347 294.617 369.778 295.011 369.376C295.404 368.974 295.961 368.773 296.68 368.773C296.951 368.773 297.22 368.809 297.486 368.881L297.423 369.833C297.224 369.795 297.012 369.776 296.788 369.776C296.407 369.776 296.113 369.888 295.906 370.112C295.698 370.332 295.595 370.65 295.595 371.064V371.788H297.061V372.696H295.595V378.656H294.42ZM301.682 372.842C301.504 372.812 301.312 372.797 301.104 372.797C300.334 372.797 299.812 373.125 299.537 373.781V378.656H298.362V371.788H299.505L299.524 372.581C299.909 371.968 300.455 371.661 301.162 371.661C301.39 371.661 301.564 371.691 301.682 371.75V372.842ZM304.043 378.656H302.869V371.788H304.043V378.656ZM302.774 369.966C302.774 369.776 302.831 369.615 302.945 369.484C303.064 369.353 303.237 369.287 303.466 369.287C303.694 369.287 303.868 369.353 303.986 369.484C304.105 369.615 304.164 369.776 304.164 369.966C304.164 370.157 304.105 370.315 303.986 370.442C303.868 370.569 303.694 370.633 303.466 370.633C303.237 370.633 303.064 370.569 302.945 370.442C302.831 370.315 302.774 370.157 302.774 369.966Z" fill="black"/>
<path d="M354.757 376.834C354.757 376.517 354.636 376.272 354.395 376.098C354.158 375.92 353.741 375.768 353.145 375.641C352.552 375.514 352.08 375.362 351.729 375.184C351.382 375.006 351.124 374.795 350.955 374.549C350.79 374.304 350.707 374.012 350.707 373.673C350.707 373.11 350.944 372.634 351.418 372.245C351.896 371.856 352.506 371.661 353.246 371.661C354.025 371.661 354.655 371.862 355.138 372.264C355.624 372.666 355.868 373.18 355.868 373.807H354.687C354.687 373.485 354.549 373.208 354.274 372.975C354.004 372.742 353.661 372.626 353.246 372.626C352.819 372.626 352.484 372.719 352.243 372.905C352.002 373.091 351.881 373.335 351.881 373.635C351.881 373.919 351.993 374.132 352.218 374.276C352.442 374.42 352.846 374.558 353.43 374.689C354.018 374.82 354.494 374.977 354.858 375.159C355.222 375.341 355.491 375.561 355.665 375.819C355.842 376.073 355.931 376.384 355.931 376.752C355.931 377.365 355.686 377.858 355.195 378.231C354.704 378.599 354.067 378.783 353.284 378.783C352.734 378.783 352.247 378.686 351.824 378.491C351.401 378.296 351.069 378.026 350.828 377.679C350.591 377.327 350.472 376.949 350.472 376.542H351.646C351.668 376.936 351.824 377.249 352.116 377.482C352.412 377.71 352.802 377.825 353.284 377.825C353.729 377.825 354.084 377.736 354.351 377.558C354.621 377.376 354.757 377.135 354.757 376.834ZM361.701 378.656C361.633 378.521 361.578 378.28 361.536 377.932C360.99 378.5 360.339 378.783 359.581 378.783C358.904 378.783 358.347 378.593 357.912 378.212C357.48 377.827 357.264 377.34 357.264 376.752C357.264 376.037 357.535 375.482 358.077 375.089C358.623 374.691 359.389 374.492 360.375 374.492H361.517V373.953C361.517 373.542 361.394 373.216 361.149 372.975C360.903 372.73 360.542 372.607 360.063 372.607C359.645 372.607 359.293 372.713 359.01 372.924C358.726 373.136 358.584 373.392 358.584 373.692H357.404C357.404 373.349 357.524 373.019 357.766 372.702C358.011 372.38 358.341 372.127 358.756 371.94C359.175 371.754 359.634 371.661 360.133 371.661C360.925 371.661 361.545 371.86 361.993 372.258C362.442 372.651 362.674 373.195 362.691 373.889V377.05C362.691 377.681 362.772 378.182 362.933 378.555V378.656H361.701ZM359.752 377.761C360.121 377.761 360.47 377.666 360.8 377.475C361.13 377.285 361.369 377.037 361.517 376.733V375.324H360.597C359.158 375.324 358.438 375.745 358.438 376.587C358.438 376.955 358.561 377.243 358.807 377.45C359.052 377.657 359.367 377.761 359.752 377.761ZM366.125 370.125V371.788H367.408V372.696H366.125V376.955C366.125 377.23 366.183 377.437 366.297 377.577C366.411 377.712 366.606 377.78 366.881 377.78C367.016 377.78 367.202 377.755 367.439 377.704V378.656C367.131 378.741 366.83 378.783 366.538 378.783C366.013 378.783 365.618 378.624 365.351 378.307C365.084 377.99 364.951 377.539 364.951 376.955V372.696H363.701V371.788H364.951V370.125H366.125Z" fill="black"/>
<path d="M418.641 376.834C418.641 376.517 418.52 376.272 418.279 376.098C418.042 375.92 417.625 375.768 417.028 375.641C416.436 375.514 415.964 375.362 415.613 375.184C415.266 375.006 415.008 374.795 414.838 374.549C414.673 374.304 414.591 374.012 414.591 373.673C414.591 373.11 414.828 372.634 415.302 372.245C415.78 371.856 416.389 371.661 417.13 371.661C417.909 371.661 418.539 371.862 419.021 372.264C419.508 372.666 419.751 373.18 419.751 373.807H418.571C418.571 373.485 418.433 373.208 418.158 372.975C417.887 372.742 417.545 372.626 417.13 372.626C416.702 372.626 416.368 372.719 416.127 372.905C415.886 373.091 415.765 373.335 415.765 373.635C415.765 373.919 415.877 374.132 416.102 374.276C416.326 374.42 416.73 374.558 417.314 374.689C417.902 374.82 418.378 374.977 418.742 375.159C419.106 375.341 419.375 375.561 419.548 375.819C419.726 376.073 419.815 376.384 419.815 376.752C419.815 377.365 419.569 377.858 419.079 378.231C418.588 378.599 417.951 378.783 417.168 378.783C416.618 378.783 416.131 378.686 415.708 378.491C415.285 378.296 414.953 378.026 414.711 377.679C414.474 377.327 414.356 376.949 414.356 376.542H415.53C415.551 376.936 415.708 377.249 416 377.482C416.296 377.71 416.686 377.825 417.168 377.825C417.612 377.825 417.968 377.736 418.234 377.558C418.505 377.376 418.641 377.135 418.641 376.834ZM425.585 377.977C425.128 378.514 424.457 378.783 423.573 378.783C422.841 378.783 422.282 378.571 421.897 378.148C421.516 377.721 421.324 377.09 421.319 376.257V371.788H422.494V376.225C422.494 377.266 422.917 377.786 423.763 377.786C424.66 377.786 425.257 377.452 425.553 376.784V371.788H426.728V378.656H425.61L425.585 377.977ZM429.628 371.788L429.667 372.651C430.191 371.991 430.877 371.661 431.723 371.661C433.175 371.661 433.907 372.48 433.919 374.118V378.656H432.745V374.111C432.741 373.616 432.627 373.25 432.402 373.013C432.182 372.776 431.837 372.658 431.368 372.658C430.987 372.658 430.653 372.759 430.365 372.962C430.077 373.165 429.853 373.432 429.692 373.762V378.656H428.518V371.788H429.628Z" fill="black"/>
<path d="M35.509 345.707H426.509" stroke="#F5F5F7"/>
<path d="M35.54 300.707H426.54" stroke="#F5F5F7"/>
<path d="M35.509 255.707H426.509" stroke="#F5F5F7"/>
<path d="M35.509 210.707H426.509" stroke="#F5F5F7"/>
<path d="M35.509 165.707H426.509" stroke="#F5F5F7"/>
<path d="M35.509 120.707H426.509" stroke="#F5F5F7"/>
<g filter="url(#filter0_d_6_86)">
<path d="M111.152 277.906C111.152 280.959 108.676 283.435 105.623 283.435C102.569 283.435 100.094 280.959 100.094 277.906C100.094 274.852 102.569 272.377 105.623 272.377C108.676 272.377 111.152 274.852 111.152 277.906Z" fill="black"/>
</g>
<g opacity="0.3" filter="url(#filter1_f_6_86)">
<path fill-rule="evenodd" clip-rule="evenodd" d="M94.4072 250.391H129.743C131.952 250.391 133.743 252.182 133.743 254.391V264.249C133.743 266.458 131.952 268.249 129.743 268.249H116.566L115.918 268.773C115.771 268.891 115.562 268.891 115.415 268.773L114.767 268.249H94.4072C92.1981 268.249 90.4072 266.458 90.4072 264.249V254.391C90.4072 252.182 92.1981 250.391 94.4072 250.391Z" fill="black"/>
</g>
<path fill-rule="evenodd" clip-rule="evenodd" d="M84.303 240.987H126.303C128.512 240.987 130.303 242.778 130.303 244.987V258.987C130.303 261.196 128.512 262.987 126.303 262.987H112.303L105.563 268.764C105.413 268.893 105.192 268.893 105.043 268.764L98.303 262.987H84.303C82.0938 262.987 80.303 261.196 80.303 258.987V244.987C80.303 242.778 82.0938 240.987 84.303 240.987Z" fill="white"/>
<path d="M94.8708 249.743L93.4708 250.177C93.3308 250.084 93.1908 249.953 93.0508 249.785C92.9108 249.617 92.8408 249.384 92.8408 249.085C92.8408 248.525 93.1815 248.133 93.8628 247.909L95.4308 247.377H95.9488C96.3502 247.377 96.6675 247.494 96.9008 247.727C97.1342 247.961 97.2508 248.278 97.2508 248.679V255.973C97.1482 255.992 96.9942 256.015 96.7888 256.043C96.5928 256.081 96.3922 256.099 96.1868 256.099C95.9815 256.099 95.7948 256.085 95.6268 256.057C95.4682 256.029 95.3328 255.973 95.2208 255.889C95.1088 255.805 95.0202 255.693 94.9548 255.553C94.8988 255.404 94.8708 255.213 94.8708 254.979V249.743ZM100.483 257.009C100.324 257.215 100.152 257.364 99.9649 257.457C99.7876 257.551 99.5683 257.597 99.3069 257.597C98.8963 257.597 98.5463 257.481 98.2569 257.247C98.4623 256.669 98.6349 256.076 98.7749 255.469C98.9149 254.853 99.0316 254.298 99.1249 253.803C99.2836 253.719 99.4749 253.649 99.6989 253.593C99.9229 253.528 100.147 253.495 100.371 253.495C100.66 253.495 100.912 253.561 101.127 253.691C101.351 253.822 101.463 254.055 101.463 254.391C101.463 254.587 101.435 254.807 101.379 255.049C101.323 255.283 101.248 255.521 101.155 255.763C101.062 255.997 100.954 256.225 100.833 256.449C100.721 256.673 100.604 256.86 100.483 257.009ZM105.501 256.211C105.072 256.211 104.68 256.179 104.325 256.113C103.98 256.048 103.681 255.95 103.429 255.819C103.177 255.689 102.981 255.53 102.841 255.343C102.701 255.147 102.631 254.923 102.631 254.671C102.631 254.41 102.706 254.191 102.855 254.013C103.005 253.836 103.173 253.696 103.359 253.593C103.621 253.789 103.901 253.962 104.199 254.111C104.498 254.251 104.876 254.321 105.333 254.321C105.772 254.321 106.085 254.223 106.271 254.027C106.458 253.831 106.551 253.593 106.551 253.313C106.551 253.043 106.467 252.819 106.299 252.641C106.141 252.464 105.861 252.375 105.459 252.375C105.207 252.375 104.997 252.403 104.829 252.459C104.661 252.515 104.47 252.595 104.255 252.697C103.798 252.679 103.434 252.557 103.163 252.333C102.902 252.1 102.771 251.745 102.771 251.269C102.771 251.241 102.771 251.209 102.771 251.171C102.771 251.125 102.776 251.036 102.785 250.905L102.953 248.777C102.981 248.376 103.107 248.059 103.331 247.825C103.555 247.592 103.868 247.475 104.269 247.475H108.301C108.357 247.578 108.413 247.713 108.469 247.881C108.525 248.049 108.553 248.227 108.553 248.413C108.553 248.768 108.474 249.02 108.315 249.169C108.157 249.319 107.956 249.393 107.713 249.393H105.025L104.927 250.709C105.105 250.663 105.282 250.621 105.459 250.583C105.646 250.546 105.879 250.527 106.159 250.527C106.645 250.527 107.065 250.602 107.419 250.751C107.774 250.891 108.063 251.087 108.287 251.339C108.521 251.591 108.689 251.885 108.791 252.221C108.903 252.557 108.959 252.917 108.959 253.299C108.959 253.682 108.894 254.051 108.763 254.405C108.633 254.76 108.427 255.073 108.147 255.343C107.867 255.605 107.508 255.815 107.069 255.973C106.64 256.132 106.117 256.211 105.501 256.211ZM116.964 255.973C116.87 256.001 116.721 256.029 116.516 256.057C116.32 256.085 116.114 256.099 115.9 256.099C115.694 256.099 115.508 256.085 115.34 256.057C115.181 256.029 115.046 255.973 114.934 255.889C114.822 255.805 114.733 255.693 114.668 255.553C114.612 255.404 114.584 255.213 114.584 254.979V251.871C114.584 251.489 114.486 251.223 114.29 251.073C114.103 250.915 113.87 250.835 113.59 250.835C113.403 250.835 113.226 250.859 113.058 250.905C112.89 250.952 112.754 251.008 112.652 251.073V255.973C112.558 256.001 112.409 256.029 112.204 256.057C112.008 256.085 111.802 256.099 111.588 256.099C111.382 256.099 111.196 256.085 111.028 256.057C110.869 256.029 110.734 255.973 110.622 255.889C110.51 255.805 110.421 255.693 110.356 255.553C110.3 255.404 110.272 255.213 110.272 254.979V246.859C110.374 246.841 110.524 246.817 110.72 246.789C110.925 246.752 111.13 246.733 111.336 246.733C111.541 246.733 111.723 246.747 111.882 246.775C112.05 246.803 112.19 246.859 112.302 246.943C112.414 247.027 112.498 247.144 112.554 247.293C112.619 247.433 112.652 247.62 112.652 247.853V249.225C112.773 249.179 112.955 249.127 113.198 249.071C113.45 249.006 113.725 248.973 114.024 248.973C114.948 248.973 115.666 249.207 116.18 249.673C116.702 250.131 116.964 250.817 116.964 251.731V255.973Z" fill="black"/>
<g filter="url(#filter2_d_6_86)">
<path d="M178.52 234.458C178.52 237.512 176.045 239.987 172.991 239.987C169.938 239.987 167.462 237.512 167.462 234.458C167.462 231.405 169.938 228.929 172.991 228.929C176.045 228.929 178.52 231.405 178.52 234.458Z" fill="black"/>
</g>
<g opacity="0.3" filter="url(#filter3_f_6_86)">
<path fill-rule="evenodd" clip-rule="evenodd" d="M161.775 206.944H197.111C199.321 206.944 201.111 208.735 201.111 210.944V220.802C201.111 223.011 199.321 224.802 197.111 224.802H183.934L183.286 225.325C183.139 225.444 182.93 225.444 182.783 225.325L182.135 224.802H161.775C159.566 224.802 157.775 223.011 157.775 220.802V210.944C157.775 208.735 159.566 206.944 161.775 206.944Z" fill="black"/>
</g>
<path fill-rule="evenodd" clip-rule="evenodd" d="M151.671 197.54H193.671C195.88 197.54 197.671 199.331 197.671 201.54V215.54C197.671 217.749 195.88 219.54 193.671 219.54H179.671L172.931 225.317C172.782 225.445 172.561 225.445 172.411 225.317L165.671 219.54H151.671C149.462 219.54 147.671 217.749 147.671 215.54V201.54C147.671 199.331 149.462 197.54 151.671 197.54Z" fill="white"/>
<path d="M162.5 203.818C163.032 203.818 163.503 203.888 163.914 204.028C164.324 204.159 164.674 204.341 164.964 204.574C165.253 204.807 165.472 205.083 165.622 205.4C165.771 205.717 165.846 206.058 165.846 206.422C165.846 207.402 165.29 208.335 164.18 209.222L162.346 210.692H165.706C165.762 210.795 165.813 210.925 165.86 211.084C165.916 211.243 165.944 211.415 165.944 211.602C165.944 211.938 165.869 212.181 165.72 212.33C165.57 212.47 165.374 212.54 165.132 212.54H160.274C160.068 212.4 159.905 212.223 159.784 212.008C159.672 211.784 159.616 211.523 159.616 211.224C159.616 210.907 159.681 210.641 159.812 210.426C159.942 210.202 160.087 210.025 160.246 209.894L162.178 208.242C162.42 208.037 162.621 207.855 162.78 207.696C162.938 207.528 163.064 207.379 163.158 207.248C163.26 207.117 163.33 206.996 163.368 206.884C163.414 206.772 163.438 206.665 163.438 206.562C163.438 206.301 163.321 206.095 163.088 205.946C162.864 205.797 162.584 205.722 162.248 205.722C161.874 205.722 161.538 205.783 161.24 205.904C160.95 206.016 160.708 206.137 160.512 206.268C160.353 206.156 160.222 206.016 160.12 205.848C160.017 205.68 159.966 205.484 159.966 205.26C159.966 204.775 160.194 204.415 160.652 204.182C161.109 203.939 161.725 203.818 162.5 203.818ZM168.794 213.562C168.636 213.767 168.463 213.917 168.276 214.01C168.099 214.103 167.88 214.15 167.618 214.15C167.208 214.15 166.858 214.033 166.568 213.8C166.774 213.221 166.946 212.629 167.086 212.022C167.226 211.406 167.343 210.851 167.436 210.356C167.595 210.272 167.786 210.202 168.01 210.146C168.234 210.081 168.458 210.048 168.682 210.048C168.972 210.048 169.224 210.113 169.438 210.244C169.662 210.375 169.774 210.608 169.774 210.944C169.774 211.14 169.746 211.359 169.69 211.602C169.634 211.835 169.56 212.073 169.466 212.316C169.373 212.549 169.266 212.778 169.144 213.002C169.032 213.226 168.916 213.413 168.794 213.562ZM173.813 212.764C173.383 212.764 172.991 212.731 172.637 212.666C172.291 212.601 171.993 212.503 171.741 212.372C171.489 212.241 171.293 212.083 171.153 211.896C171.013 211.7 170.943 211.476 170.943 211.224C170.943 210.963 171.017 210.743 171.167 210.566C171.316 210.389 171.484 210.249 171.671 210.146C171.932 210.342 172.212 210.515 172.511 210.664C172.809 210.804 173.187 210.874 173.645 210.874C174.083 210.874 174.396 210.776 174.583 210.58C174.769 210.384 174.863 210.146 174.863 209.866C174.863 209.595 174.779 209.371 174.611 209.194C174.452 209.017 174.172 208.928 173.771 208.928C173.519 208.928 173.309 208.956 173.141 209.012C172.973 209.068 172.781 209.147 172.567 209.25C172.109 209.231 171.745 209.11 171.475 208.886C171.213 208.653 171.083 208.298 171.083 207.822C171.083 207.794 171.083 207.761 171.083 207.724C171.083 207.677 171.087 207.589 171.097 207.458L171.265 205.33C171.293 204.929 171.419 204.611 171.643 204.378C171.867 204.145 172.179 204.028 172.581 204.028H176.613C176.669 204.131 176.725 204.266 176.781 204.434C176.837 204.602 176.865 204.779 176.865 204.966C176.865 205.321 176.785 205.573 176.627 205.722C176.468 205.871 176.267 205.946 176.025 205.946H173.337L173.239 207.262C173.416 207.215 173.593 207.173 173.771 207.136C173.957 207.099 174.191 207.08 174.471 207.08C174.956 207.08 175.376 207.155 175.731 207.304C176.085 207.444 176.375 207.64 176.599 207.892C176.832 208.144 177 208.438 177.103 208.774C177.215 209.11 177.271 209.469 177.271 209.852C177.271 210.235 177.205 210.603 177.075 210.958C176.944 211.313 176.739 211.625 176.459 211.896C176.179 212.157 175.819 212.367 175.381 212.526C174.951 212.685 174.429 212.764 173.813 212.764ZM185.275 212.526C185.182 212.554 185.033 212.582 184.827 212.61C184.631 212.638 184.426 212.652 184.211 212.652C184.006 212.652 183.819 212.638 183.651 212.61C183.493 212.582 183.357 212.526 183.245 212.442C183.133 212.358 183.045 212.246 182.979 212.106C182.923 211.957 182.895 211.765 182.895 211.532V208.424C182.895 208.041 182.797 207.775 182.601 207.626C182.415 207.467 182.181 207.388 181.901 207.388C181.715 207.388 181.537 207.411 181.369 207.458C181.201 207.505 181.066 207.561 180.963 207.626V212.526C180.87 212.554 180.721 212.582 180.515 212.61C180.319 212.638 180.114 212.652 179.899 212.652C179.694 212.652 179.507 212.638 179.339 212.61C179.181 212.582 179.045 212.526 178.933 212.442C178.821 212.358 178.733 212.246 178.667 212.106C178.611 211.957 178.583 211.765 178.583 211.532V203.412C178.686 203.393 178.835 203.37 179.031 203.342C179.237 203.305 179.442 203.286 179.647 203.286C179.853 203.286 180.035 203.3 180.193 203.328C180.361 203.356 180.501 203.412 180.613 203.496C180.725 203.58 180.809 203.697 180.865 203.846C180.931 203.986 180.963 204.173 180.963 204.406V205.778C181.085 205.731 181.267 205.68 181.509 205.624C181.761 205.559 182.037 205.526 182.335 205.526C183.259 205.526 183.978 205.759 184.491 206.226C185.014 206.683 185.275 207.369 185.275 208.284V212.526Z" fill="black"/>
<g filter="url(#filter4_d_6_86)">
<path d="M306.288 164.75C306.288 167.804 303.813 170.279 300.759 170.279C297.706 170.279 295.23 167.804 295.23 164.75C295.23 161.697 297.706 159.222 300.759 159.222C303.813 159.222 306.288 161.697 306.288 164.75Z" fill="black"/>
</g>
<g opacity="0.3" filter="url(#filter5_f_6_86)">
<path fill-rule="evenodd" clip-rule="evenodd" d="M289.543 137.236H324.88C327.089 137.236 328.88 139.027 328.88 141.236V151.094C328.88 153.303 327.089 155.094 324.88 155.094H311.702L311.054 155.618C310.907 155.736 310.698 155.736 310.551 155.618L309.903 155.094H289.543C287.334 155.094 285.543 153.303 285.543 151.094V141.236C285.543 139.027 287.334 137.236 289.543 137.236Z" fill="black"/>
</g>
<path fill-rule="evenodd" clip-rule="evenodd" d="M279.439 127.832H321.439C323.648 127.832 325.439 129.623 325.439 131.832V145.832C325.439 148.041 323.648 149.832 321.439 149.832H307.439L300.7 155.609C300.55 155.737 300.329 155.737 300.179 155.609L293.439 149.832H279.439C277.23 149.832 275.439 148.041 275.439 145.832V131.832C275.439 129.623 277.23 127.832 279.439 127.832Z" fill="white"/>
<path d="M295.904 134.418C296.081 134.362 296.282 134.315 296.506 134.278C296.739 134.241 296.949 134.222 297.136 134.222C297.35 134.222 297.556 134.245 297.752 134.292C297.957 134.329 298.139 134.399 298.298 134.502C298.456 134.595 298.582 134.726 298.676 134.894C298.769 135.062 298.816 135.272 298.816 135.524V139.248H300.062C300.118 139.351 300.174 139.486 300.23 139.654C300.286 139.822 300.314 139.999 300.314 140.186C300.314 140.541 300.234 140.793 300.076 140.942C299.917 141.091 299.716 141.166 299.474 141.166H298.816V142.818C298.713 142.837 298.559 142.86 298.354 142.888C298.148 142.925 297.952 142.944 297.766 142.944C297.56 142.944 297.378 142.935 297.22 142.916C297.061 142.897 296.926 142.855 296.814 142.79C296.711 142.715 296.632 142.613 296.576 142.482C296.52 142.351 296.492 142.174 296.492 141.95V141.166H292.978C292.763 141.054 292.576 140.891 292.418 140.676C292.268 140.452 292.194 140.181 292.194 139.864C292.194 139.687 292.217 139.491 292.264 139.276C292.31 139.061 292.39 138.875 292.502 138.716L295.904 134.418ZM296.618 136.616H296.576L294.714 139.248H296.618V136.616ZM308.038 142.818C307.945 142.846 307.795 142.874 307.59 142.902C307.394 142.93 307.189 142.944 306.974 142.944C306.769 142.944 306.582 142.93 306.414 142.902C306.255 142.874 306.12 142.818 306.008 142.734C305.896 142.65 305.807 142.538 305.742 142.398C305.686 142.249 305.658 142.057 305.658 141.824V138.716C305.658 138.333 305.56 138.067 305.364 137.918C305.177 137.759 304.944 137.68 304.664 137.68C304.477 137.68 304.3 137.703 304.132 137.75C303.964 137.797 303.829 137.853 303.726 137.918V142.818C303.633 142.846 303.483 142.874 303.278 142.902C303.082 142.93 302.877 142.944 302.662 142.944C302.457 142.944 302.27 142.93 302.102 142.902C301.943 142.874 301.808 142.818 301.696 142.734C301.584 142.65 301.495 142.538 301.43 142.398C301.374 142.249 301.346 142.057 301.346 141.824V133.704C301.449 133.685 301.598 133.662 301.794 133.634C301.999 133.597 302.205 133.578 302.41 133.578C302.615 133.578 302.797 133.592 302.956 133.62C303.124 133.648 303.264 133.704 303.376 133.788C303.488 133.872 303.572 133.989 303.628 134.138C303.693 134.278 303.726 134.465 303.726 134.698V136.07C303.847 136.023 304.029 135.972 304.272 135.916C304.524 135.851 304.799 135.818 305.098 135.818C306.022 135.818 306.741 136.051 307.254 136.518C307.777 136.975 308.038 137.661 308.038 138.576V142.818Z" fill="black"/>
<path d="M34.7778 345.175C34.3965 345.575 34.4113 346.208 34.8108 346.589C35.2103 346.971 35.8433 346.956 36.2246 346.556L34.7778 345.175ZM240.713 302.505C247.127 302.505 252.292 300.256 256.452 296.328C260.586 292.425 263.692 286.901 266.106 280.384C270.929 267.368 273.105 250.067 274.985 232.917C276.872 215.694 278.462 198.629 282.067 185.85C283.869 179.464 286.148 174.253 289.142 170.654C292.105 167.093 295.761 165.111 300.437 165.111V163.111C295.086 163.111 290.893 165.422 287.605 169.375C284.348 173.289 281.975 178.813 280.143 185.307C276.48 198.289 274.874 215.573 272.996 232.699C271.111 249.897 268.953 266.945 264.231 279.69C261.872 286.054 258.903 291.263 255.079 294.874C251.28 298.46 246.603 300.505 240.713 300.505V302.505ZM300.437 165.111C309.763 165.111 315.549 167.89 319.666 171.973C323.84 176.114 326.372 181.656 329.05 187.419C331.696 193.115 334.483 199.016 339.198 203.46C343.965 207.952 350.614 210.885 360.84 210.885V208.885C351.044 208.885 344.911 206.096 340.57 202.005C336.178 197.866 333.534 192.324 330.863 186.576C328.224 180.896 325.552 174.995 321.074 170.553C316.538 166.053 310.223 163.111 300.437 163.111V165.111ZM360.84 210.885C380.365 210.885 390.485 221.915 398.774 233.217C402.889 238.827 406.627 244.625 410.787 248.953C414.99 253.325 419.772 256.367 426.075 256.367V254.367C420.52 254.367 416.225 251.723 412.229 247.567C408.191 243.367 404.611 237.794 400.387 232.034C391.997 220.595 381.357 208.885 360.84 208.885V210.885ZM173.247 234.797C180.844 234.797 186.858 238.795 192.142 245.023C197.444 251.272 201.898 259.631 206.392 268.119C210.857 276.554 215.362 285.121 220.73 291.565C226.114 298.028 232.488 302.505 240.713 302.505V300.505C233.323 300.505 227.458 296.518 222.267 290.285C217.06 284.034 212.654 275.674 208.159 267.183C203.692 258.744 199.137 250.176 193.667 243.729C188.18 237.262 181.659 232.797 173.247 232.797V234.797ZM36.2246 346.556C39.915 342.69 44.0501 336.508 48.6487 329.521C53.2707 322.499 58.3976 314.604 64.1181 307.183C75.6096 292.276 89.2371 279.64 105.532 279.64V277.64C88.1945 277.64 74.0356 291.042 62.5342 305.962C56.7583 313.454 51.5871 321.419 46.9781 328.422C42.3455 335.46 38.3164 341.468 34.7778 345.175L36.2246 346.556ZM105.532 279.64C116.684 279.64 124.65 276.784 130.796 272.45C136.917 268.134 141.165 262.397 144.945 256.776C148.76 251.103 152.053 245.633 156.339 241.525C160.563 237.478 165.72 234.797 173.247 234.797V232.797C165.145 232.797 159.506 235.72 154.956 240.081C150.468 244.382 147.01 250.122 143.285 255.66C139.526 261.25 135.447 266.723 129.644 270.816C123.865 274.89 116.31 277.64 105.532 277.64V279.64Z" fill="#AC3F45"/>
<g filter="url(#filter6_d_6_86)">
<path d="M41.1677 343.947C41.1677 347.001 38.6923 349.476 35.6388 349.476C32.5852 349.476 30.1099 347.001 30.1099 343.947C30.1099 340.893 32.5852 338.418 35.6388 338.418C38.6923 338.418 41.1677 340.893 41.1677 343.947Z" fill="black"/>
</g>
<g opacity="0.3" filter="url(#filter7_f_6_86)">
<path fill-rule="evenodd" clip-rule="evenodd" d="M24.4231 316.432H59.7592C61.9683 316.432 63.7592 318.223 63.7592 320.432V330.291C63.7592 332.5 61.9683 334.291 59.7592 334.291H46.5816L45.9334 334.814C45.7868 334.932 45.5774 334.932 45.4308 334.814L44.7826 334.291H24.4231C22.214 334.291 20.4231 332.5 20.4231 330.291V320.432C20.4231 318.223 22.214 316.432 24.4231 316.432Z" fill="black"/>
</g>
<path fill-rule="evenodd" clip-rule="evenodd" d="M14.3188 307.029H56.3188C58.528 307.029 60.3188 308.82 60.3188 311.029V325.029C60.3188 327.238 58.528 329.029 56.3188 329.029H42.3188L35.5792 334.806C35.4294 334.934 35.2083 334.934 35.0585 334.806L28.3188 329.029H14.3188C12.1097 329.029 10.3188 327.238 10.3188 325.029V311.029C10.3188 308.82 12.1097 307.029 14.3188 307.029Z" fill="white"/>
<path d="M32.379 317.773C32.379 316.951 32.2577 316.317 32.015 315.869C31.7817 315.421 31.4457 315.197 31.007 315.197C30.5683 315.197 30.2323 315.421 29.999 315.869C29.775 316.317 29.663 316.951 29.663 317.773C29.663 318.594 29.775 319.233 29.999 319.691C30.2323 320.139 30.5683 320.363 31.007 320.363C31.4457 320.363 31.7817 320.139 32.015 319.691C32.2577 319.233 32.379 318.594 32.379 317.773ZM34.773 317.773C34.773 318.491 34.6797 319.131 34.493 319.691C34.3063 320.251 34.045 320.722 33.709 321.105C33.3823 321.478 32.9857 321.763 32.519 321.959C32.0617 322.155 31.5623 322.253 31.021 322.253C30.4703 322.253 29.9617 322.155 29.495 321.959C29.0377 321.763 28.641 321.478 28.305 321.105C27.9783 320.722 27.7217 320.251 27.535 319.691C27.3577 319.131 27.269 318.491 27.269 317.773C27.269 317.054 27.3577 316.419 27.535 315.869C27.7217 315.309 27.9783 314.842 28.305 314.469C28.641 314.086 29.0377 313.797 29.495 313.601C29.9617 313.405 30.4703 313.307 31.021 313.307C31.5623 313.307 32.0617 313.405 32.519 313.601C32.9857 313.797 33.3823 314.086 33.709 314.469C34.045 314.842 34.3063 315.309 34.493 315.869C34.6797 316.419 34.773 317.054 34.773 317.773ZM42.9172 322.015C42.8239 322.043 42.6746 322.071 42.4692 322.099C42.2732 322.127 42.0679 322.141 41.8532 322.141C41.6479 322.141 41.4612 322.127 41.2932 322.099C41.1346 322.071 40.9992 322.015 40.8872 321.931C40.7752 321.847 40.6866 321.735 40.6212 321.595C40.5652 321.445 40.5372 321.254 40.5372 321.021V317.913C40.5372 317.53 40.4392 317.264 40.2432 317.115C40.0566 316.956 39.8232 316.877 39.5432 316.877C39.3566 316.877 39.1792 316.9 39.0112 316.947C38.8432 316.993 38.7079 317.049 38.6052 317.115V322.015C38.5119 322.043 38.3626 322.071 38.1572 322.099C37.9612 322.127 37.7559 322.141 37.5412 322.141C37.3359 322.141 37.1492 322.127 36.9812 322.099C36.8226 322.071 36.6872 322.015 36.5752 321.931C36.4632 321.847 36.3746 321.735 36.3092 321.595C36.2532 321.445 36.2252 321.254 36.2252 321.021V312.901C36.3279 312.882 36.4772 312.859 36.6732 312.831C36.8786 312.793 37.0839 312.775 37.2892 312.775C37.4946 312.775 37.6766 312.789 37.8352 312.817C38.0032 312.845 38.1432 312.901 38.2552 312.985C38.3672 313.069 38.4512 313.185 38.5072 313.335C38.5726 313.475 38.6052 313.661 38.6052 313.895V315.267C38.7266 315.22 38.9086 315.169 39.1512 315.113C39.4032 315.047 39.6786 315.015 39.9772 315.015C40.9012 315.015 41.6199 315.248 42.1332 315.715C42.6559 316.172 42.9172 316.858 42.9172 317.773V322.015Z" fill="black"/>
<g filter="url(#filter8_d_6_86)">
<path d="M245.889 301.184C245.889 304.238 243.414 306.713 240.36 306.713C237.306 306.713 234.831 304.238 234.831 301.184C234.831 298.131 237.306 295.655 240.36 295.655C243.414 295.655 245.889 298.131 245.889 301.184Z" fill="black"/>
</g>
<g opacity="0.3" filter="url(#filter9_f_6_86)">
<path fill-rule="evenodd" clip-rule="evenodd" d="M229.144 273.67H264.48C266.689 273.67 268.48 275.46 268.48 277.67V287.528C268.48 289.737 266.689 291.528 264.48 291.528H251.303L250.655 292.051C250.508 292.17 250.299 292.17 250.152 292.051L249.504 291.528H229.144C226.935 291.528 225.144 289.737 225.144 287.528V277.67C225.144 275.46 226.935 273.67 229.144 273.67Z" fill="black"/>
</g>
<path fill-rule="evenodd" clip-rule="evenodd" d="M219.04 264.266H261.04C263.249 264.266 265.04 266.057 265.04 268.266V282.266C265.04 284.475 263.249 286.266 261.04 286.266H247.04L240.3 292.043C240.151 292.171 239.93 292.171 239.78 292.043L233.04 286.266H219.04C216.831 286.266 215.04 284.475 215.04 282.266V268.266C215.04 266.057 216.831 264.266 219.04 264.266Z" fill="white"/>
<path d="M235.167 273.022L233.767 273.456C233.627 273.363 233.487 273.232 233.347 273.064C233.207 272.896 233.137 272.663 233.137 272.364C233.137 271.804 233.478 271.412 234.159 271.188L235.727 270.656H236.245C236.647 270.656 236.964 270.773 237.197 271.006C237.431 271.239 237.547 271.557 237.547 271.958V279.252C237.445 279.271 237.291 279.294 237.085 279.322C236.889 279.359 236.689 279.378 236.483 279.378C236.278 279.378 236.091 279.364 235.923 279.336C235.765 279.308 235.629 279.252 235.517 279.168C235.405 279.084 235.317 278.972 235.251 278.832C235.195 278.683 235.167 278.491 235.167 278.258V273.022ZM246.141 279.252C246.048 279.28 245.899 279.308 245.693 279.336C245.497 279.364 245.292 279.378 245.077 279.378C244.872 279.378 244.685 279.364 244.517 279.336C244.359 279.308 244.223 279.252 244.111 279.168C243.999 279.084 243.911 278.972 243.845 278.832C243.789 278.683 243.761 278.491 243.761 278.258V275.15C243.761 274.767 243.663 274.501 243.467 274.352C243.281 274.193 243.047 274.114 242.767 274.114C242.581 274.114 242.403 274.137 242.235 274.184C242.067 274.231 241.932 274.287 241.829 274.352V279.252C241.736 279.28 241.587 279.308 241.381 279.336C241.185 279.364 240.98 279.378 240.765 279.378C240.56 279.378 240.373 279.364 240.205 279.336C240.047 279.308 239.911 279.252 239.799 279.168C239.687 279.084 239.599 278.972 239.533 278.832C239.477 278.683 239.449 278.491 239.449 278.258V270.138C239.552 270.119 239.701 270.096 239.897 270.068C240.103 270.031 240.308 270.012 240.513 270.012C240.719 270.012 240.901 270.026 241.059 270.054C241.227 270.082 241.367 270.138 241.479 270.222C241.591 270.306 241.675 270.423 241.731 270.572C241.797 270.712 241.829 270.899 241.829 271.132V272.504C241.951 272.457 242.133 272.406 242.375 272.35C242.627 272.285 242.903 272.252 243.201 272.252C244.125 272.252 244.844 272.485 245.357 272.952C245.88 273.409 246.141 274.095 246.141 275.01V279.252Z" fill="black"/>
<g filter="url(#filter10_d_6_86)">
<path d="M366.688 209.766C366.688 212.819 364.212 215.295 361.159 215.295C358.105 215.295 355.63 212.819 355.63 209.766C355.63 206.712 358.105 204.237 361.159 204.237C364.212 204.237 366.688 206.712 366.688 209.766Z" fill="black"/>
</g>
<g opacity="0.3" filter="url(#filter11_f_6_86)">
<path fill-rule="evenodd" clip-rule="evenodd" d="M349.943 182.251H385.279C387.489 182.251 389.279 184.042 389.279 186.251V196.109C389.279 198.319 387.489 200.109 385.279 200.109H372.102L371.454 200.633C371.307 200.751 371.098 200.751 370.951 200.633L370.303 200.109H349.943C347.734 200.109 345.943 198.319 345.943 196.109V186.251C345.943 184.042 347.734 182.251 349.943 182.251Z" fill="black"/>
</g>
<path fill-rule="evenodd" clip-rule="evenodd" d="M339.839 172.848H381.839C384.048 172.848 385.839 174.638 385.839 176.848V190.848C385.839 193.057 384.048 194.848 381.839 194.848H367.839L361.099 200.624C360.949 200.753 360.728 200.753 360.579 200.624L353.839 194.848H339.839C337.63 194.848 335.839 193.057 335.839 190.848V176.848C335.839 174.638 337.63 172.848 339.839 172.848Z" fill="white"/>
<path d="M356.183 179.126C357.256 179.126 358.073 179.35 358.633 179.798C359.193 180.236 359.473 180.829 359.473 181.576C359.473 182.024 359.352 182.406 359.109 182.724C358.876 183.032 358.596 183.265 358.269 183.424C358.465 183.498 358.647 183.592 358.815 183.704C358.983 183.816 359.132 183.956 359.263 184.124C359.394 184.292 359.496 184.488 359.571 184.712C359.646 184.936 359.683 185.197 359.683 185.496C359.683 185.897 359.594 186.256 359.417 186.574C359.249 186.891 359.011 187.162 358.703 187.386C358.395 187.61 358.026 187.778 357.597 187.89C357.177 188.011 356.715 188.072 356.211 188.072C355.24 188.072 354.508 187.936 354.013 187.666C353.518 187.395 353.271 187.05 353.271 186.63C353.271 186.378 353.332 186.163 353.453 185.986C353.574 185.799 353.724 185.654 353.901 185.552C354.088 185.682 354.335 185.822 354.643 185.972C354.96 186.112 355.371 186.182 355.875 186.182C356.351 186.182 356.701 186.098 356.925 185.93C357.158 185.762 357.275 185.542 357.275 185.272C357.275 185.001 357.182 184.796 356.995 184.656C356.818 184.516 356.505 184.446 356.057 184.446H354.741C354.676 184.343 354.62 184.217 354.573 184.068C354.526 183.918 354.503 183.741 354.503 183.536C354.503 183.321 354.522 183.139 354.559 182.99C354.606 182.831 354.666 182.7 354.741 182.598H356.057C356.729 182.598 357.065 182.341 357.065 181.828C357.065 181.585 356.958 181.389 356.743 181.24C356.528 181.09 356.206 181.016 355.777 181.016C355.394 181.016 355.058 181.062 354.769 181.156C354.48 181.24 354.242 181.347 354.055 181.478C353.896 181.366 353.766 181.23 353.663 181.072C353.56 180.904 353.509 180.708 353.509 180.484C353.509 180.017 353.752 179.676 354.237 179.462C354.722 179.238 355.371 179.126 356.183 179.126ZM367.815 187.834C367.722 187.862 367.573 187.89 367.367 187.918C367.171 187.946 366.966 187.96 366.751 187.96C366.546 187.96 366.359 187.946 366.191 187.918C366.033 187.89 365.897 187.834 365.785 187.75C365.673 187.666 365.585 187.554 365.519 187.414C365.463 187.264 365.435 187.073 365.435 186.84V183.732C365.435 183.349 365.337 183.083 365.141 182.934C364.955 182.775 364.721 182.696 364.441 182.696C364.255 182.696 364.077 182.719 363.909 182.766C363.741 182.812 363.606 182.868 363.503 182.934V187.834C363.41 187.862 363.261 187.89 363.055 187.918C362.859 187.946 362.654 187.96 362.439 187.96C362.234 187.96 362.047 187.946 361.879 187.918C361.721 187.89 361.585 187.834 361.473 187.75C361.361 187.666 361.273 187.554 361.207 187.414C361.151 187.264 361.123 187.073 361.123 186.84V178.72C361.226 178.701 361.375 178.678 361.571 178.65C361.777 178.612 361.982 178.594 362.187 178.594C362.393 178.594 362.575 178.608 362.733 178.636C362.901 178.664 363.041 178.72 363.153 178.804C363.265 178.888 363.349 179.004 363.405 179.154C363.471 179.294 363.503 179.48 363.503 179.714V181.086C363.625 181.039 363.807 180.988 364.049 180.932C364.301 180.866 364.577 180.834 364.875 180.834C365.799 180.834 366.518 181.067 367.031 181.534C367.554 181.991 367.815 182.677 367.815 183.592V187.834Z" fill="black"/>
<g filter="url(#filter12_d_6_86)">
<path d="M432.314 255.983C432.314 259.037 429.838 261.512 426.785 261.512C423.731 261.512 421.256 259.037 421.256 255.983C421.256 252.93 423.731 250.454 426.785 250.454C429.838 250.454 432.314 252.93 432.314 255.983Z" fill="black"/>
</g>
<g opacity="0.3" filter="url(#filter13_f_6_86)">
<path fill-rule="evenodd" clip-rule="evenodd" d="M415.569 228.469H450.905C453.115 228.469 454.905 230.26 454.905 232.469V242.327C454.905 244.536 453.115 246.327 450.905 246.327H437.728L437.08 246.85C436.933 246.969 436.724 246.969 436.577 246.85L435.929 246.327H415.569C413.36 246.327 411.569 244.536 411.569 242.327V232.469C411.569 230.26 413.36 228.469 415.569 228.469Z" fill="black"/>
</g>
<path fill-rule="evenodd" clip-rule="evenodd" d="M405.465 219.065H447.465C449.674 219.065 451.465 220.856 451.465 223.065V237.065C451.465 239.274 449.674 241.065 447.465 241.065H433.465L426.725 246.842C426.575 246.97 426.354 246.97 426.205 246.842L419.465 241.065H405.465C403.256 241.065 401.465 239.274 401.465 237.065V223.065C401.465 220.856 403.256 219.065 405.465 219.065Z" fill="white"/>
<path d="M421.887 225.343C422.419 225.343 422.89 225.413 423.301 225.553C423.712 225.684 424.062 225.866 424.351 226.099C424.64 226.332 424.86 226.608 425.009 226.925C425.158 227.242 425.233 227.583 425.233 227.947C425.233 228.927 424.678 229.86 423.567 230.747L421.733 232.217H425.093C425.149 232.32 425.2 232.45 425.247 232.609C425.303 232.768 425.331 232.94 425.331 233.127C425.331 233.463 425.256 233.706 425.107 233.855C424.958 233.995 424.762 234.065 424.519 234.065H419.661C419.456 233.925 419.292 233.748 419.171 233.533C419.059 233.309 419.003 233.048 419.003 232.749C419.003 232.432 419.068 232.166 419.199 231.951C419.33 231.727 419.474 231.55 419.633 231.419L421.565 229.767C421.808 229.562 422.008 229.38 422.167 229.221C422.326 229.053 422.452 228.904 422.545 228.773C422.648 228.642 422.718 228.521 422.755 228.409C422.802 228.297 422.825 228.19 422.825 228.087C422.825 227.826 422.708 227.62 422.475 227.471C422.251 227.322 421.971 227.247 421.635 227.247C421.262 227.247 420.926 227.308 420.627 227.429C420.338 227.541 420.095 227.662 419.899 227.793C419.74 227.681 419.61 227.541 419.507 227.373C419.404 227.205 419.353 227.009 419.353 226.785C419.353 226.3 419.582 225.94 420.039 225.707C420.496 225.464 421.112 225.343 421.887 225.343ZM433.475 234.051C433.382 234.079 433.233 234.107 433.027 234.135C432.831 234.163 432.626 234.177 432.411 234.177C432.206 234.177 432.019 234.163 431.851 234.135C431.693 234.107 431.557 234.051 431.445 233.967C431.333 233.883 431.245 233.771 431.179 233.631C431.123 233.482 431.095 233.29 431.095 233.057V229.949C431.095 229.566 430.997 229.3 430.801 229.151C430.615 228.992 430.381 228.913 430.101 228.913C429.915 228.913 429.737 228.936 429.569 228.983C429.401 229.03 429.266 229.086 429.163 229.151V234.051C429.07 234.079 428.921 234.107 428.715 234.135C428.519 234.163 428.314 234.177 428.099 234.177C427.894 234.177 427.707 234.163 427.539 234.135C427.381 234.107 427.245 234.051 427.133 233.967C427.021 233.883 426.933 233.771 426.867 233.631C426.811 233.482 426.783 233.29 426.783 233.057V224.937C426.886 224.918 427.035 224.895 427.231 224.867C427.437 224.83 427.642 224.811 427.847 224.811C428.053 224.811 428.235 224.825 428.393 224.853C428.561 224.881 428.701 224.937 428.813 225.021C428.925 225.105 429.009 225.222 429.065 225.371C429.131 225.511 429.163 225.698 429.163 225.931V227.303C429.285 227.256 429.467 227.205 429.709 227.149C429.961 227.084 430.237 227.051 430.535 227.051C431.459 227.051 432.178 227.284 432.691 227.751C433.214 228.208 433.475 228.894 433.475 229.809V234.051Z" fill="black"/>
<defs>
<filter id="filter0_d_6_86" x="98.094" y="271.377" width="15.0579" height="15.0579" filterUnits="userSpaceOnUse" color-interpolation-filters="sRGB">
<feFlood flood-opacity="0" result="BackgroundImageFix"/>
<feColorMatrix in="SourceAlpha" type="matrix" values="0 0 0 0 0 0 0 0 0 0 0 0 0 0 0 0 0 0 127 0" result="hardAlpha"/>
<feOffset dy="1"/>
<feGaussianBlur stdDeviation="1"/>
<feColorMatrix type="matrix" values="0 0 0 0 0.215686 0 0 0 0 0.317647 0 0 0 0 1 0 0 0 0.2 0"/>
<feBlend mode="normal" in2="BackgroundImageFix" result="effect1_dropShadow_6_86"/>
<feBlend mode="normal" in="SourceGraphic" in2="effect1_dropShadow_6_86" result="shape"/>
</filter>
<filter id="filter1_f_6_86" x="70.4072" y="230.391" width="83.3359" height="58.4705" filterUnits="userSpaceOnUse" color-interpolation-filters="sRGB">
<feFlood flood-opacity="0" result="BackgroundImageFix"/>
<feBlend mode="normal" in="SourceGraphic" in2="BackgroundImageFix" result="shape"/>
<feGaussianBlur stdDeviation="10" result="effect1_foregroundBlur_6_86"/>
</filter>
<filter id="filter2_d_6_86" x="165.462" y="227.929" width="15.0579" height="15.0579" filterUnits="userSpaceOnUse" color-interpolation-filters="sRGB">
<feFlood flood-opacity="0" result="BackgroundImageFix"/>
<feColorMatrix in="SourceAlpha" type="matrix" values="0 0 0 0 0 0 0 0 0 0 0 0 0 0 0 0 0 0 127 0" result="hardAlpha"/>
<feOffset dy="1"/>
<feGaussianBlur stdDeviation="1"/>
<feColorMatrix type="matrix" values="0 0 0 0 0.215686 0 0 0 0 0.317647 0 0 0 0 1 0 0 0 0.2 0"/>
<feBlend mode="normal" in2="BackgroundImageFix" result="effect1_dropShadow_6_86"/>
<feBlend mode="normal" in="SourceGraphic" in2="effect1_dropShadow_6_86" result="shape"/>
</filter>
<filter id="filter3_f_6_86" x="137.775" y="186.944" width="83.3359" height="58.4705" filterUnits="userSpaceOnUse" color-interpolation-filters="sRGB">
<feFlood flood-opacity="0" result="BackgroundImageFix"/>
<feBlend mode="normal" in="SourceGraphic" in2="BackgroundImageFix" result="shape"/>
<feGaussianBlur stdDeviation="10" result="effect1_foregroundBlur_6_86"/>
</filter>
<filter id="filter4_d_6_86" x="293.23" y="158.222" width="15.0576" height="15.0579" filterUnits="userSpaceOnUse" color-interpolation-filters="sRGB">
<feFlood flood-opacity="0" result="BackgroundImageFix"/>
<feColorMatrix in="SourceAlpha" type="matrix" values="0 0 0 0 0 0 0 0 0 0 0 0 0 0 0 0 0 0 127 0" result="hardAlpha"/>
<feOffset dy="1"/>
<feGaussianBlur stdDeviation="1"/>
<feColorMatrix type="matrix" values="0 0 0 0 0.215686 0 0 0 0 0.317647 0 0 0 0 1 0 0 0 0.2 0"/>
<feBlend mode="normal" in2="BackgroundImageFix" result="effect1_dropShadow_6_86"/>
<feBlend mode="normal" in="SourceGraphic" in2="effect1_dropShadow_6_86" result="shape"/>
</filter>
<filter id="filter5_f_6_86" x="265.543" y="117.236" width="83.3359" height="58.4705" filterUnits="userSpaceOnUse" color-interpolation-filters="sRGB">
<feFlood flood-opacity="0" result="BackgroundImageFix"/>
<feBlend mode="normal" in="SourceGraphic" in2="BackgroundImageFix" result="shape"/>
<feGaussianBlur stdDeviation="10" result="effect1_foregroundBlur_6_86"/>
</filter>
<filter id="filter6_d_6_86" x="28.1099" y="337.418" width="15.0579" height="15.0579" filterUnits="userSpaceOnUse" color-interpolation-filters="sRGB">
<feFlood flood-opacity="0" result="BackgroundImageFix"/>
<feColorMatrix in="SourceAlpha" type="matrix" values="0 0 0 0 0 0 0 0 0 0 0 0 0 0 0 0 0 0 127 0" result="hardAlpha"/>
<feOffset dy="1"/>
<feGaussianBlur stdDeviation="1"/>
<feColorMatrix type="matrix" values="0 0 0 0 0.215686 0 0 0 0 0.317647 0 0 0 0 1 0 0 0 0.2 0"/>
<feBlend mode="normal" in2="BackgroundImageFix" result="effect1_dropShadow_6_86"/>
<feBlend mode="normal" in="SourceGraphic" in2="effect1_dropShadow_6_86" result="shape"/>
</filter>
<filter id="filter7_f_6_86" x="0.423096" y="296.432" width="83.3359" height="58.4705" filterUnits="userSpaceOnUse" color-interpolation-filters="sRGB">
<feFlood flood-opacity="0" result="BackgroundImageFix"/>
<feBlend mode="normal" in="SourceGraphic" in2="BackgroundImageFix" result="shape"/>
<feGaussianBlur stdDeviation="10" result="effect1_foregroundBlur_6_86"/>
</filter>
<filter id="filter8_d_6_86" x="232.831" y="294.655" width="15.0579" height="15.0579" filterUnits="userSpaceOnUse" color-interpolation-filters="sRGB">
<feFlood flood-opacity="0" result="BackgroundImageFix"/>
<feColorMatrix in="SourceAlpha" type="matrix" values="0 0 0 0 0 0 0 0 0 0 0 0 0 0 0 0 0 0 127 0" result="hardAlpha"/>
<feOffset dy="1"/>
<feGaussianBlur stdDeviation="1"/>
<feColorMatrix type="matrix" values="0 0 0 0 0.215686 0 0 0 0 0.317647 0 0 0 0 1 0 0 0 0.2 0"/>
<feBlend mode="normal" in2="BackgroundImageFix" result="effect1_dropShadow_6_86"/>
<feBlend mode="normal" in="SourceGraphic" in2="effect1_dropShadow_6_86" result="shape"/>
</filter>
<filter id="filter9_f_6_86" x="205.144" y="253.67" width="83.3359" height="58.4705" filterUnits="userSpaceOnUse" color-interpolation-filters="sRGB">
<feFlood flood-opacity="0" result="BackgroundImageFix"/>
<feBlend mode="normal" in="SourceGraphic" in2="BackgroundImageFix" result="shape"/>
<feGaussianBlur stdDeviation="10" result="effect1_foregroundBlur_6_86"/>
</filter>
<filter id="filter10_d_6_86" x="353.63" y="203.237" width="15.0576" height="15.0579" filterUnits="userSpaceOnUse" color-interpolation-filters="sRGB">
<feFlood flood-opacity="0" result="BackgroundImageFix"/>
<feColorMatrix in="SourceAlpha" type="matrix" values="0 0 0 0 0 0 0 0 0 0 0 0 0 0 0 0 0 0 127 0" result="hardAlpha"/>
<feOffset dy="1"/>
<feGaussianBlur stdDeviation="1"/>
<feColorMatrix type="matrix" values="0 0 0 0 0.215686 0 0 0 0 0.317647 0 0 0 0 1 0 0 0 0.2 0"/>
<feBlend mode="normal" in2="BackgroundImageFix" result="effect1_dropShadow_6_86"/>
<feBlend mode="normal" in="SourceGraphic" in2="effect1_dropShadow_6_86" result="shape"/>
</filter>
<filter id="filter11_f_6_86" x="325.943" y="162.251" width="83.3359" height="58.4705" filterUnits="userSpaceOnUse" color-interpolation-filters="sRGB">
<feFlood flood-opacity="0" result="BackgroundImageFix"/>
<feBlend mode="normal" in="SourceGraphic" in2="BackgroundImageFix" result="shape"/>
<feGaussianBlur stdDeviation="10" result="effect1_foregroundBlur_6_86"/>
</filter>
<filter id="filter12_d_6_86" x="419.256" y="249.454" width="15.0576" height="15.0579" filterUnits="userSpaceOnUse" color-interpolation-filters="sRGB">
<feFlood flood-opacity="0" result="BackgroundImageFix"/>
<feColorMatrix in="SourceAlpha" type="matrix" values="0 0 0 0 0 0 0 0 0 0 0 0 0 0 0 0 0 0 127 0" result="hardAlpha"/>
<feOffset dy="1"/>
<feGaussianBlur stdDeviation="1"/>
<feColorMatrix type="matrix" values="0 0 0 0 0.215686 0 0 0 0 0.317647 0 0 0 0 1 0 0 0 0.2 0"/>
<feBlend mode="normal" in2="BackgroundImageFix" result="effect1_dropShadow_6_86"/>
<feBlend mode="normal" in="SourceGraphic" in2="effect1_dropShadow_6_86" result="shape"/>
</filter>
<filter id="filter13_f_6_86" x="391.569" y="208.469" width="83.3359" height="58.4705" filterUnits="userSpaceOnUse" color-interpolation-filters="sRGB">
<feFlood flood-opacity="0" result="BackgroundImageFix"/>
<feBlend mode="normal" in="SourceGraphic" in2="BackgroundImageFix" result="shape"/>
<feGaussianBlur stdDeviation="10" result="effect1_foregroundBlur_6_86"/>
</filter>
</defs>
</svg>
