<svg width="126" height="126" viewBox="0 0 126 126" fill="none" xmlns="http://www.w3.org/2000/svg">
<g clip-path="url(#clip0_6_71)">
<path d="M124.907 114.562L115.478 66.0789C115.201 64.5875 113.89 63.5005 112.377 63.5005H107.259L106.805 60.7199C106.578 59.3549 105.519 58.2932 104.158 58.091C103.906 58.0405 103.679 58.0152 103.427 57.9899C103.276 57.9646 103.099 57.9393 102.948 57.9393L101.738 57.7624L101.99 56.5743C102.645 53.541 102.116 50.4318 100.502 47.7776L100.2 47.2973L100.401 46.7664C101.208 44.6684 101.057 42.3175 99.9981 40.3458C98.9392 38.3741 97.0483 36.9585 94.8549 36.4783L94.1237 36.3266L93.9977 35.5683C92.485 27.4793 85.4257 21.5642 77.2318 21.5137C77.1562 21.5137 77.0554 21.5137 76.9797 21.5389C76.8789 21.5389 76.778 21.5642 76.6772 21.5642L76.0217 21.5895L75.6687 21.0334C74.4333 19.1122 72.4416 17.8483 70.1725 17.545C67.9035 17.2669 65.6596 18 63.9957 19.5672L63.3401 20.1739L62.5838 19.6936C60.3652 18.2528 57.7936 17.4944 55.1715 17.4944C50.9107 17.5197 46.9525 19.4661 44.3305 22.8534L43.8514 23.4601L43.1203 23.2326C40.2966 22.4237 37.3216 22.9039 34.9265 24.5976C32.5314 26.2912 31.0439 28.9454 30.8674 31.8777L30.817 32.5854L30.1614 32.8635C27.2873 34.0769 25.4468 36.8827 25.4216 39.9919C25.4216 40.5228 25.4973 41.0536 25.5981 41.5844L25.699 42.0647L25.4216 42.4692C22.6988 46.5895 21.9928 51.6704 23.4803 56.3721L23.8837 57.6613L22.5475 57.8382C22.3206 57.8635 22.0685 57.8888 21.8416 57.9393C21.5138 57.9899 21.1608 58.0405 20.8331 58.0657C19.4717 58.268 18.3875 59.3296 18.1606 60.6946L17.7068 63.4752H12.6393C11.1266 63.4752 9.81554 64.5622 9.53821 66.0536L0.109003 114.562C-0.193538 116.129 0.209851 117.747 1.21832 118.986C2.22679 120.224 3.7395 120.932 5.32784 120.932H50.8351L51.1629 121.488C52.5243 123.738 57.0876 125.255 62.483 125.255C67.8531 125.255 72.366 123.738 73.7526 121.488L74.0804 120.958H119.638C121.226 120.958 122.714 120.25 123.748 119.011C124.806 117.747 125.21 116.129 124.907 114.562ZM25.9511 45.8564L26.6066 44.2892L27.7915 45.5025C28.1949 45.9323 28.674 46.2862 29.1782 46.6148C29.6572 46.8928 30.2623 46.7412 30.5648 46.2609C30.8422 45.8059 30.7161 45.2498 30.3127 44.9211L30.2371 44.8706C28.0689 43.5561 27.01 40.9272 27.6907 38.4752C28.3714 36.0233 30.6153 34.3044 33.1364 34.3044H33.1616C34.9265 34.3044 36.6157 35.1638 37.6746 36.6047C37.8763 36.8827 38.2544 37.0344 38.6074 37.0091C38.9604 36.9585 39.2881 36.731 39.4142 36.4024C39.5654 36.0738 39.515 35.6946 39.2881 35.3913C38.0275 33.6977 36.0862 32.6107 33.9936 32.3832L32.7331 32.2568L32.9852 31.0182C33.7415 27.5046 36.893 24.9262 40.4731 24.9262H40.4983H40.5235C40.826 24.9515 41.1286 24.9767 41.4311 25.0273L42.8178 25.2548L42.3135 26.5693C42.1623 26.9737 42.011 27.3782 41.9101 27.7826C41.7841 28.3135 42.1118 28.8443 42.6413 28.996C43.1707 29.1224 43.7254 28.819 43.8767 28.2882C44.154 27.2518 44.5574 26.2659 45.112 25.3054C47.2046 21.7664 51.062 19.5672 55.1463 19.542C57.4154 19.542 59.5836 20.2245 61.4745 21.4631L62.2308 21.9434L61.9283 22.7776C61.651 23.5612 61.4997 24.3954 61.4997 25.2295C61.4997 25.7856 61.9535 26.2407 62.5082 26.2407C63.0628 26.2407 63.5166 25.7856 63.5166 25.2295C63.5166 22.0951 66.063 19.542 69.1641 19.542C72.2903 19.542 74.8367 22.0951 74.8367 25.2295C74.8367 25.7856 75.2905 26.2407 75.8452 26.2407C76.3998 26.2407 76.8537 25.7856 76.8537 25.2295C76.8537 25.2043 76.8537 25.1537 76.8285 25.1284C76.8032 25.0273 76.8032 24.9262 76.8032 24.7998L76.7276 23.5359L77.9882 23.6117C84.5937 24.0162 90.2663 28.819 91.7538 35.2902L92.0059 36.3519L90.9723 36.6552C90.0899 36.908 89.2831 37.3124 88.5519 37.8686C88.2746 38.0961 88.0981 38.45 88.1485 38.8039C88.199 39.1577 88.4259 39.4864 88.7536 39.6127C89.0814 39.7644 89.4848 39.7139 89.7621 39.4864C91.9051 37.8938 94.9053 38.0202 96.897 39.7897C98.8888 41.5592 99.393 44.5167 98.082 46.8423C97.5021 47.8787 96.6197 48.6876 95.5356 49.1931C95.1322 49.3954 94.9053 49.8756 95.0061 50.3306C95.107 50.7856 95.5104 51.1143 95.9894 51.1395C96.1155 51.1395 96.2667 51.1143 96.418 51.0384C96.897 50.8109 97.3761 50.5076 97.8047 50.1537L99.04 49.1679L99.5695 50.6593C100.83 54.2235 100.049 58.1921 97.5273 60.998L97.4517 61.0738C94.3506 64.4611 89.2831 65.3711 85.1483 63.3236L85.1231 63.2983C84.7197 63.0708 84.3164 62.8433 83.9382 62.5652L83.0305 61.908L83.6861 60.998C85.0223 59.1021 85.224 56.6502 84.1651 54.5774C84.0138 54.2487 83.6861 54.0465 83.3079 54.0212C82.9549 53.996 82.602 54.1729 82.4003 54.4762C82.1986 54.7796 82.1734 55.184 82.3498 55.4874C83.3079 57.4085 82.7028 59.7846 80.938 60.998C79.8791 61.7058 78.6185 61.908 77.4083 61.6047C76.1982 61.3013 75.1897 60.4924 74.6098 59.3802C74.4333 59.0263 74.1056 58.8241 73.7526 58.7988C73.3997 58.7735 73.0467 58.9505 72.845 59.2538C72.6433 59.5571 72.6181 59.9363 72.7946 60.2649C73.8787 62.4388 76.0469 63.8038 78.4672 63.8038H78.4924C79.274 63.8038 80.0303 63.6522 80.7615 63.3488L81.417 63.0961L81.9464 63.5511C82.6524 64.1577 83.4087 64.6886 84.2407 65.1183C87.0644 66.5844 90.2915 66.8878 93.317 65.9525L96.5693 64.9666L94.5523 67.7219C92.2328 70.8817 88.8293 72.9798 84.9719 73.6117C84.4676 73.6876 84.0894 74.1679 84.1147 74.6987C84.1651 75.2295 84.5937 75.634 85.1231 75.634C85.1736 75.634 85.224 75.634 85.2996 75.634C86.5098 75.4318 87.6947 75.0779 88.8545 74.5976L89.7873 74.1931L90.2915 75.0779C90.9975 76.3165 91.5521 77.6309 91.9807 78.996C92.0816 79.3246 92.132 79.6785 92.1572 80.0324C92.1572 81.4227 91.3252 82.6866 90.0646 83.2174L90.0394 83.2427C89.6108 83.3943 89.1822 83.4955 88.7536 83.4955C87.6947 83.4955 86.6863 83.0152 85.9803 82.181C84.4424 80.3863 82.4507 79.0465 80.2068 78.3387C75.6939 76.822 73.3492 75.3054 72.3408 73.2831L71.6096 71.8423L73.198 71.64C74.2569 71.5137 75.2905 71.2862 76.3242 70.9828C76.652 70.8817 76.9293 70.6036 77.0049 70.2498C77.0806 69.8959 76.9797 69.5167 76.7024 69.2639C76.4251 69.0111 76.0469 68.9353 75.7191 69.0364C74.4333 69.4409 73.0971 69.6684 71.7357 69.7695C69.1641 69.9717 66.5168 69.5672 64.1217 68.6067C63.7183 68.455 63.2645 68.5561 62.9872 68.8847C59.4323 72.9798 53.4823 73.6623 49.0955 70.4773C44.7339 67.2922 43.5237 61.4024 46.297 56.7513C46.4987 56.4479 46.4987 56.0435 46.3222 55.7149C46.1457 55.3863 45.818 55.184 45.4398 55.184C45.0868 55.184 44.7339 55.361 44.5574 55.6896C44.1036 56.4732 43.7254 57.3327 43.4228 58.2174L43.1707 59.0516L42.2883 59.001C40.0193 58.8746 38.204 57.0041 38.1536 54.7037V54.6279C38.1536 54.3751 38.0527 54.0971 37.851 53.9201C37.6746 53.7432 37.3972 53.6421 37.1451 53.6421C36.5652 53.6421 36.1114 54.1223 36.1114 54.6785C36.1114 57.9393 38.557 60.6441 41.7841 60.998L42.7925 61.0991V62.1102C42.7925 62.7674 42.8682 63.4247 42.969 64.0819L43.1455 65.1436L42.0866 65.3711C36.8426 66.5086 31.4725 64.638 28.0437 60.4924C24.6401 56.4479 23.8333 50.7856 25.9511 45.8564ZM50.8099 118.859H5.32784C4.34458 118.859 3.41175 118.43 2.78145 117.646C2.15116 116.888 1.89904 115.902 2.10073 114.941L11.7064 65.5228H17.4043L10.4458 107.535C10.2694 108.622 10.6727 109.709 11.5047 110.442C12.3367 111.175 13.4712 111.402 14.5301 111.074C26.1276 107.307 38.6074 106.524 50.6082 108.774L51.6167 108.976L50.8099 118.859ZM72.0634 120.427C71.2062 121.766 67.3992 123.182 62.5082 123.182C57.6171 123.182 53.8101 121.792 52.9529 120.427L52.7512 120.098L53.6336 109.431L54.9194 109.759C57.3397 110.366 59.7097 111.175 62.0039 112.135L62.0544 112.161C62.1804 112.237 62.3569 112.262 62.5082 112.262C62.6594 112.262 62.8107 112.237 62.9368 112.161L62.9872 112.135C65.2815 111.15 67.6766 110.341 70.0717 109.734L71.3575 109.405L72.2399 120.098L72.0634 120.427ZM65.0041 109.127L63.5166 109.633V81.1193C63.5166 80.5885 63.1385 80.1082 62.609 80.0576C62.0039 80.0071 61.4745 80.4621 61.4745 81.0688V109.658L59.987 109.153C45.1372 104.173 28.7748 104.173 13.9251 109.127C13.799 109.178 13.6729 109.178 13.5721 109.178C12.8914 109.178 12.3367 108.571 12.4628 107.864L20.3541 60.1891L21.1608 60.0627C21.9676 59.9363 22.8248 59.8352 23.6316 59.7341L24.9426 59.5571L25.3208 60.1891C29.0521 66.1547 36.1366 69.0364 42.9438 67.3681L43.801 67.1658L44.2044 67.9494C45.9944 71.3367 49.2972 73.7381 53.0537 74.3954C56.8103 75.0273 60.7433 73.8645 63.5418 71.2356L64.0209 70.7806L64.6512 70.9575C66.0378 71.362 67.4497 71.6148 68.8867 71.7159L69.6935 71.7664L69.8952 72.5501C70.8281 76.0637 73.5005 78.2123 79.5009 80.2346C81.3918 80.816 83.081 81.9535 84.3668 83.4702C85.4509 84.7594 87.0392 85.5177 88.7032 85.5177C89.4343 85.5177 90.1403 85.366 90.7958 85.088C92.8127 84.2285 94.1237 82.2316 94.1237 80.0324C94.1237 79.451 94.0229 78.8948 93.8464 78.3387C93.3926 76.8726 92.7623 75.4823 92.0312 74.1426L91.5269 73.2578L92.3589 72.6512C95.7877 70.1739 98.1828 66.5339 99.0652 62.3883L99.1157 62.1102L99.2921 61.8827C99.7207 61.3772 100.099 60.8463 100.427 60.2902L100.805 59.6582L102.015 59.8099C102.57 59.8857 103.175 59.9616 103.755 60.0627L104.561 60.1891L112.453 107.838C112.579 108.672 111.772 109.38 110.965 109.102C103.528 106.625 95.7373 105.361 87.9468 105.361C80.232 105.412 72.4416 106.65 65.0041 109.127ZM122.21 117.671C121.579 118.43 120.647 118.885 119.663 118.885H74.2064L73.3997 108.976L74.4081 108.774C86.4089 106.498 98.914 107.307 110.511 111.099C111.545 111.428 112.68 111.175 113.537 110.442C114.369 109.709 114.772 108.622 114.596 107.535L107.637 65.548H113.36L122.966 114.967C123.092 115.927 122.84 116.913 122.21 117.671Z" fill="#AC3F45"/>
<path d="M72.2649 120.098L72.0632 120.427C71.206 121.766 67.399 123.182 62.5079 123.182C57.6168 123.182 53.8099 121.792 52.9527 120.427L52.751 120.098L53.6334 109.431L54.9192 109.759C57.3395 110.366 59.7094 111.175 62.0037 112.135L62.0541 112.161C62.1802 112.237 62.3567 112.262 62.5079 112.262C62.6592 112.262 62.8105 112.237 62.9365 112.161L62.987 112.135C65.2812 111.15 67.6763 110.341 70.0715 109.734L71.3573 109.405L72.2649 120.098Z" fill="#AC3F45"/>
<path d="M76.3998 44.5925C75.4669 49.4458 71.5591 53.2376 66.7185 54.0465L66.063 54.1476L65.836 54.7542C64.4494 58.4701 60.8693 60.9474 56.9111 60.9474H56.8859C56.3312 60.9474 55.8774 60.4924 55.8774 59.9362C55.8774 59.3801 56.3312 58.9251 56.8859 58.9251C59.3314 58.9251 61.6257 57.7371 63.0375 55.7401L64.046 54.3245L62.3568 53.9706C59.9113 53.4398 57.7431 52.2012 56.0539 50.3306C55.8774 50.1284 55.8018 49.9009 55.8018 49.6481C55.8018 49.37 55.9278 49.092 56.1295 48.8897C56.5581 48.5106 57.1884 48.5358 57.5666 48.9656C60.9198 52.555 66.2899 53.1617 70.3742 50.4317C72.492 48.9656 73.929 46.7664 74.4081 44.2133C74.4585 43.8594 74.7106 43.5561 75.0636 43.4297C75.4165 43.3033 75.7947 43.3791 76.072 43.6319C76.3746 43.8341 76.5006 44.2133 76.3998 44.5925Z" fill="#AC3F45"/>
<path d="M56.6339 35.7704C56.6339 36.3265 56.1801 36.7815 55.6254 36.7815C53.8354 36.7815 52.1462 37.4893 50.8604 38.7532C49.5746 40.0171 48.8939 41.736 48.8939 43.5308C48.8939 44.0869 48.4401 44.5419 47.8854 44.5419C47.6081 44.5419 47.356 44.4408 47.1795 44.2386C46.9778 44.0363 46.877 43.7836 46.877 43.5308C46.877 38.6774 50.81 34.7593 55.6507 34.734C56.1801 34.734 56.6339 35.189 56.6339 35.7704Z" fill="#AC3F45"/>
<path d="M63.5164 1.24061V3.38925C63.5164 3.94537 63.0626 4.40037 62.508 4.40037C61.9533 4.40037 61.4995 3.94537 61.4995 3.38925V1.24061C61.4995 0.684497 61.9533 0.229492 62.508 0.229492C63.0626 0.229492 63.5164 0.684497 63.5164 1.24061Z" fill="#AC3F45"/>
<path d="M100.049 16.8119L97.8806 18.9859C97.6284 19.2386 97.2503 19.365 96.8973 19.2639C96.5443 19.1628 96.267 18.8847 96.1662 18.5308C96.0653 18.177 96.1662 17.7978 96.4435 17.5197L98.5865 15.3711H98.6117C98.8134 15.1689 99.0655 15.0677 99.3428 15.0677C99.4185 15.0677 99.5193 15.0677 99.595 15.093C99.9479 15.1941 100.225 15.4722 100.326 15.8261C100.427 16.1547 100.326 16.5339 100.049 16.8119Z" fill="#AC3F45"/>
<path d="M28.7749 18.632C28.6236 19.0111 28.2454 19.2639 27.842 19.2639C27.5647 19.2639 27.3126 19.1628 27.1361 18.9606L24.9679 16.7867C24.6906 16.5339 24.5897 16.1547 24.6906 15.8008C24.7914 15.4469 25.0687 15.1689 25.4217 15.0678C25.4973 15.0425 25.5982 15.0425 25.6738 15.0425C25.9512 15.0425 26.2033 15.1436 26.4302 15.3711L28.5732 17.5197C28.8505 17.8231 28.9261 18.2528 28.7749 18.632Z" fill="#AC3F45"/>
<path d="M45.3387 9.55712C45.2379 9.80991 45.0362 10.0121 44.7841 10.1132C44.658 10.1638 44.532 10.1891 44.3807 10.1891C43.9773 10.1891 43.5991 9.9363 43.4479 9.55712L40.9771 3.54095C40.8258 3.21233 40.8762 2.80788 41.1032 2.50455C41.3048 2.25177 41.6074 2.1001 41.9099 2.1001C41.9604 2.1001 42.0108 2.1001 42.0612 2.1001C42.4142 2.15065 42.7419 2.40343 42.868 2.75733L45.3387 8.74823C45.4396 9.02629 45.4396 9.30434 45.3387 9.55712Z" fill="#AC3F45"/>
<path d="M84.039 3.59147L81.5683 9.58237C81.4926 9.78459 81.3666 9.93626 81.1901 10.0374C81.0388 10.1385 80.8371 10.2143 80.6354 10.2143C80.5094 10.2143 80.3581 10.189 80.2572 10.1385C80.0051 10.0374 79.8034 9.83515 79.7026 9.58237C79.6017 9.32959 79.6017 9.05153 79.7026 8.79875L82.1733 2.83312C82.3246 2.42867 82.728 2.20117 83.1062 2.20117C83.2322 2.20117 83.3583 2.22645 83.4844 2.27701C83.7365 2.37812 83.9382 2.58034 84.039 2.83312C84.1399 3.06063 84.1399 3.33868 84.039 3.59147Z" fill="#AC3F45"/>
<path d="M113.209 32.5096C113.159 32.8635 112.932 33.1921 112.579 33.3185L106.604 35.7957C106.477 35.8463 106.351 35.8716 106.225 35.8716C105.746 35.8716 105.318 35.5177 105.217 35.0627C105.116 34.5824 105.368 34.1021 105.822 33.9252L111.797 31.4479C111.923 31.3973 112.049 31.3721 112.175 31.3721C112.402 31.3721 112.604 31.4479 112.806 31.5743C113.108 31.8018 113.259 32.1557 113.209 32.5096Z" fill="#AC3F45"/>
<path d="M19.7235 35.2396C19.5218 35.7705 18.9167 35.998 18.3872 35.7957L12.412 33.3185C12.1599 33.2174 11.9582 33.0152 11.8574 32.7624C11.7565 32.5096 11.7565 32.2315 11.8574 31.9788C11.9582 31.726 12.1599 31.5237 12.412 31.4226C12.5381 31.3721 12.6642 31.3468 12.7902 31.3468C12.9163 31.3468 13.0675 31.3721 13.1684 31.4226L19.1436 33.8999C19.3957 34.001 19.5974 34.2032 19.6982 34.456C19.8243 34.7088 19.8243 34.9868 19.7235 35.2396Z" fill="#AC3F45"/>
</g>
<defs>
<clipPath id="clip0_6_71">
<rect width="125" height="125" fill="white" transform="translate(0.00805664 0.229492)"/>
</clipPath>
</defs>
</svg>
