<svg width="28" height="27" viewBox="0 0 28 27" fill="none" xmlns="http://www.w3.org/2000/svg">
<path d="M19.3545 20.4927V22.5322C19.3545 24.7815 17.5247 26.6113 15.2754 26.6113H5.0268C2.77755 26.6113 0.947754 24.7815 0.947754 22.5322V4.58442C0.947754 2.33517 2.77755 0.505371 5.0268 0.505371H15.2754C17.5247 0.505371 19.3545 2.33517 19.3545 4.58442V6.62394C19.3545 7.1872 18.898 7.64371 18.3347 7.64371C17.7714 7.64371 17.3149 7.1872 17.3149 6.62394V4.58442C17.3149 3.45989 16.3999 2.5449 15.2754 2.5449H5.0268C3.90228 2.5449 2.98728 3.45989 2.98728 4.58442V22.5322C2.98728 23.6568 3.90228 24.5718 5.0268 24.5718H15.2754C16.3999 24.5718 17.3149 23.6568 17.3149 22.5322V20.4927C17.3149 19.9294 17.7714 19.4729 18.3347 19.4729C18.898 19.4729 19.3545 19.9294 19.3545 20.4927ZM26.307 11.8066L24.0235 9.5231C23.6251 9.12475 22.9794 9.12475 22.5812 9.5231C22.1829 9.92124 22.1829 10.567 22.5812 10.9651L24.2055 12.5896H11.9612C11.3979 12.5896 10.9414 13.0461 10.9414 13.6093C10.9414 14.1726 11.3979 14.6291 11.9612 14.6291H24.2055L22.5812 16.2535C22.1829 16.6517 22.1829 17.2974 22.5812 17.6955C22.7804 17.8947 23.0413 17.9943 23.3023 17.9943C23.5634 17.9943 23.8243 17.8947 24.0235 17.6955L26.307 15.412C27.301 14.418 27.301 12.8007 26.307 11.8066Z" fill="white"/>
</svg>
