<svg width="90" height="93" viewBox="0 0 90 93" fill="none" xmlns="http://www.w3.org/2000/svg">
<path d="M49.485 8.78848L61.6725 30.6047C62.1686 31.4944 62.3027 32.5511 62.0453 33.5429C61.788 34.5346 61.1603 35.3802 60.3 35.8941L55.425 38.8004L59.1787 45.5119L52.6837 49.3869L48.9337 42.6715L44.0625 45.5816C43.2012 46.0954 42.1777 46.2347 41.217 45.9687C40.2564 45.7027 39.4373 45.0533 38.94 44.1634L32.0475 31.8331C29.5883 32.6054 27.3089 33.8916 25.3508 35.6121C23.3927 37.3326 21.7977 39.4505 20.6648 41.8345C19.5318 44.2185 18.8851 46.8176 18.7647 49.4706C18.6443 52.1236 19.0529 54.7739 19.965 57.257C22.9646 55.2877 26.4461 54.2444 30 54.25C36.315 54.25 41.9025 57.4779 45.3 62.4224L74.13 45.2212L77.88 51.9327L48.3375 69.5601C48.8762 72.1761 48.889 74.8787 48.375 77.5H78.75V85.25L15 85.2539C12.5599 81.9018 11.2435 77.8194 11.25 73.625C11.25 69.7229 12.3675 66.0881 14.2875 63.0462C12.5479 59.6438 11.5287 55.8978 11.2976 52.057C11.0665 48.2163 11.6287 44.3687 12.9471 40.7698C14.2654 37.1708 16.3095 33.9028 18.9439 31.1829C21.5782 28.4629 24.7423 26.3531 28.2262 24.9937L26.7525 22.351C25.758 20.571 25.4885 18.4556 26.0033 16.4703C26.518 14.485 27.775 12.7922 29.4975 11.7645L39.24 5.95198C40.9626 4.92432 43.0097 4.64582 44.931 5.17777C46.8523 5.70971 48.4904 7.00852 49.485 8.78848Z" fill="white"/>
</svg>
