<svg width="24" height="27" viewBox="0 0 24 27" fill="none" xmlns="http://www.w3.org/2000/svg">
<path d="M12.0002 0.0748291C8.21394 0.0748291 5.13354 3.15523 5.13354 6.94153C5.13354 10.7278 8.21394 13.8082 12.0002 13.8082C15.7865 13.8082 18.8669 10.7278 18.8669 6.94153C18.8669 3.15523 15.7865 0.0748291 12.0002 0.0748291ZM12.0002 12.2823C9.05534 12.2823 6.65948 9.88642 6.65948 6.94153C6.65948 3.99663 9.05534 1.60076 12.0002 1.60076C14.9451 1.60076 17.341 3.99663 17.341 6.94153C17.341 9.88642 14.9451 12.2823 12.0002 12.2823Z" fill="white"/>
<path d="M20.5437 18.2942C18.6637 16.3853 16.1715 15.3341 13.5261 15.3341H10.4742C7.82887 15.3341 5.33661 16.3853 3.45667 18.2942C1.58592 20.1936 0.555664 22.701 0.555664 25.3544C0.555664 25.7758 0.897269 26.1174 1.31863 26.1174H22.6817C23.103 26.1174 23.4447 25.7758 23.4447 25.3544C23.4447 22.701 22.4144 20.1936 20.5437 18.2942ZM2.11517 24.5914C2.49741 20.2636 6.10045 16.86 10.4742 16.86H13.5261C17.8999 16.86 21.5029 20.2636 21.8851 24.5914H2.11517Z" fill="white"/>
</svg>
