<svg width="147" height="155" viewBox="0 0 147 155" fill="none" xmlns="http://www.w3.org/2000/svg">
<g clip-path="url(#clip0_6_395)">
<path d="M78.6975 16.2785C83.8285 29.533 100.621 27.5384 112.016 24.7073C114.748 23.9996 117.547 23.2275 120.012 21.8763C122.478 20.5251 124.543 18.3375 125.343 15.6994C126.209 12.7397 125.21 9.45826 123.477 6.88458C121.878 4.50393 119.546 1.99459 117.08 0.450377C116.014 3.0884 112.216 3.28143 109.617 3.28143C105.952 3.28143 102.62 1.93024 99.2215 0.965113C95.7564 -1.74493e-05 92.0248 -0.193044 88.5597 0.707745C81.5629 2.3163 75.9654 9.2009 78.6975 16.2785Z" fill="white"/>
<path d="M89.1596 105.006C88.9597 105.006 88.893 105.006 88.7598 105.071L89.1596 105.006Z" fill="black"/>
<path d="M89.1596 105.006C88.9597 105.006 88.893 105.006 88.7598 105.071L89.1596 105.006Z" fill="black"/>
<path d="M74.3662 40.4711V28.0531C74.3662 17.501 84.5616 8.87915 97.0226 8.87915C103.22 8.87915 108.884 11.0024 113.015 14.4769C117.147 17.9514 119.679 22.7127 119.679 27.9887V40.4068" stroke="white" stroke-width="2" stroke-miterlimit="10"/>
<path d="M119.679 53.9187V68.267C119.679 78.8191 109.484 87.4409 97.0226 87.4409C84.5616 87.4409 74.3662 78.8191 74.3662 68.267V53.9187" stroke="white" stroke-width="2" stroke-miterlimit="10"/>
<path d="M83.562 58.3583C89.9288 58.3583 95.0901 53.3747 95.0901 47.2271C95.0901 41.0795 89.9288 36.0959 83.562 36.0959C77.1952 36.0959 72.0339 41.0795 72.0339 47.2271C72.0339 53.3747 77.1952 58.3583 83.562 58.3583Z" stroke="white" stroke-width="2" stroke-miterlimit="10"/>
<path d="M110.417 58.3583C116.783 58.3583 121.945 53.3747 121.945 47.2271C121.945 41.0795 116.783 36.0959 110.417 36.0959C104.05 36.0959 98.8884 41.0795 98.8884 47.2271C98.8884 53.3747 104.05 58.3583 110.417 58.3583Z" stroke="white" stroke-width="2" stroke-miterlimit="10"/>
<path d="M95.0237 46.9054H99.0219" stroke="white" stroke-width="4" stroke-miterlimit="10"/>
<path d="M106.285 85.7036H106.352V105.843" stroke="white" stroke-width="2" stroke-miterlimit="10"/>
<path d="M89.6926 105.585V86.2184" stroke="white" stroke-width="2" stroke-miterlimit="10"/>
<path d="M83.5622 49.8008C85.0343 49.8008 86.2276 48.6485 86.2276 47.2271C86.2276 45.8057 85.0343 44.6534 83.5622 44.6534C82.0901 44.6534 80.8967 45.8057 80.8967 47.2271C80.8967 48.6485 82.0901 49.8008 83.5622 49.8008Z" fill="white"/>
<path d="M110.417 49.8008C111.889 49.8008 113.082 48.6485 113.082 47.2271C113.082 45.8057 111.889 44.6534 110.417 44.6534C108.945 44.6534 107.751 45.8057 107.751 47.2271C107.751 48.6485 108.945 49.8008 110.417 49.8008Z" fill="white"/>
<path d="M72.8336 51.4093H71.5008C70.0348 51.4093 68.7021 51.9884 67.7026 52.8892C66.7696 53.8543 66.1699 55.1411 66.1699 56.5567C66.1699 59.3877 68.5688 61.704 71.5008 61.704H74.1663" stroke="white" stroke-width="2" stroke-miterlimit="10"/>
<path d="M121.145 51.4093H122.478C125.41 51.4093 127.809 53.7256 127.809 56.5567C127.809 57.9722 127.209 59.259 126.209 60.2242C125.276 61.1249 123.944 61.704 122.478 61.704H119.812" stroke="white" stroke-width="2" stroke-miterlimit="10"/>
<path d="M74.2331 55.0125V58.1009H72.1007C71.2345 58.1009 70.5015 57.3931 70.5015 56.5567C70.5015 56.1063 70.7014 55.7202 70.9679 55.4628C71.2345 55.2055 71.6343 55.0125 72.1007 55.0125H74.2331Z" fill="white"/>
<path d="M119.812 58.1009V55.0125H121.945C122.811 55.0125 123.544 55.7202 123.544 56.5567C123.544 57.0071 123.344 57.3931 123.077 57.6505C122.811 57.9078 122.411 58.1009 121.945 58.1009H119.812Z" fill="white"/>
<path d="M97.0227 57.8435C97.0227 57.8435 93.6909 62.9909 99.0218 61.704" stroke="white" stroke-width="2" stroke-miterlimit="10" stroke-linecap="round"/>
<path d="M91.0254 72.7065C91.0254 72.7065 96.3563 79.0764 103.686 72.7065" stroke="white" stroke-width="2" stroke-miterlimit="10" stroke-linecap="round"/>
<path d="M78.3645 34.0369C78.3645 34.0369 82.0295 30.4981 88.36 33.3935" stroke="white" stroke-width="3" stroke-miterlimit="10" stroke-linecap="round"/>
<path d="M115.681 34.0369C115.681 34.0369 112.016 30.4981 105.685 33.3935" stroke="white" stroke-width="3" stroke-miterlimit="10" stroke-linecap="round"/>
<path d="M74.2329 26.702C74.2329 26.702 65.0371 19.8174 69.0353 11.4529C73.0335 3.08846 85.6944 7.59241 85.6944 7.59241C85.6944 7.59241 90.7588 28.4392 74.2329 26.702Z" fill="white"/>
<path d="M28.5203 78.1119C27.7207 75.6026 26.5879 74.3801 25.9881 70.7126C24.7221 63.3776 25.1885 56.3643 22.0566 56.6217C20.7905 56.7504 20.3907 58.0372 20.4573 58.745L21.4569 70.3265C21.0571 71.6777 20.3241 71.163 20.3241 71.163C20.3241 71.163 17.7252 60.8683 17.3921 59.0023C17.0589 57.2008 16.126 56.1713 14.8599 56.3C12.6609 56.493 13.5271 59.0667 13.727 60.0318L16.0593 72.5142C16.2592 73.7367 14.9265 73.3506 14.9265 73.3506L9.72886 60.8683C9.12913 59.5171 7.99631 59.8388 7.99631 59.8388C5.93058 60.2892 6.73022 62.0908 6.73022 62.0908L11.1949 75.3452C11.1949 75.4096 11.1949 75.4739 11.1949 75.5383C11.2615 76.246 10.3286 76.6321 9.92877 75.9886C8.5294 73.9297 5.79731 70.6483 3.53167 69.3614C2.39885 68.718 1.59921 68.8467 1.13276 69.1684C0.666303 69.4901 0.599666 70.0692 0.932848 70.5196L9.2624 82.1655C11.1949 94.5192 18.9913 95.999 18.9913 95.999L23.6559 113.629L30.5194 141.425L31.3857 144.963C32.1853 148.373 35.3839 150.818 38.9823 150.818H42.6473C45.2461 150.818 47.0453 148.373 46.2456 146.057L29.6532 97.2859L28.9202 93.0393C30.5194 91.3021 31.5856 87.6346 32.1187 84.9965C32.4519 83.581 32.5852 82.1011 32.4519 80.6856C32.1853 77.1468 34.6509 70.7769 34.6509 70.7769C34.451 69.5544 32.0521 70.5839 32.0521 70.5839C29.3866 71.4847 28.7202 75.6026 28.5203 77.8546C28.4537 78.8197 27.9872 79.6561 27.3209 80.2996C23.3227 84.0957 22.9895 88.3423 22.9895 88.3423" stroke="white" stroke-width="2" stroke-miterlimit="10"/>
<path d="M17.3255 59.066C16.9923 57.2645 16.3926 55.9133 14.7933 56.3637C12.6609 56.9427 13.4606 59.1304 13.6605 60.0955" stroke="white" stroke-width="2" stroke-miterlimit="10"/>
<path d="M147 154.357V155H132.473L129.408 138.593V155H66.5031V145.67C66.5031 143.418 66.5031 141.166 66.5697 138.914C65.1704 140.008 63.6377 140.909 61.8386 141.874L47.9115 150.882C47.8449 150.946 47.7783 150.946 47.7116 151.011C47.1119 151.333 46.4455 151.526 45.7125 151.526L42.8163 151.632C42.8163 151.632 45.9124 150.496 46.6454 147.665L41.6477 131.579C48.7778 125.853 60.3059 109.317 82.4292 105.907C83.3621 105.714 84.3617 105.521 85.4278 105.392C86.4274 105.264 87.4269 105.135 88.5598 105.071L89.2928 105.006V105.135L88.8929 105.199C89.0262 105.199 89.0928 105.199 89.2261 105.135H89.2928C89.426 105.135 89.5593 105.135 89.6926 105.071H89.7592L90.4256 105.006V107.451C90.4256 107.773 90.5588 108.159 90.892 108.481C91.8916 109.575 94.1572 110.411 96.8893 110.604C97.3558 110.668 97.8222 110.668 98.2887 110.668C98.3553 110.668 98.422 110.668 98.422 110.668H98.4886C101.154 110.604 103.62 109.896 104.886 108.867C105.286 108.545 105.685 108.095 105.685 107.451V105.199L106.352 105.328H106.485C106.685 105.328 106.818 105.392 107.018 105.392V105.199L107.884 105.328C132.34 108.223 147 126.561 147 154.357Z" fill="white"/>
<path d="M47.8449 150.818L47.645 150.946C47.7117 150.946 47.7783 150.882 47.8449 150.818Z" fill="black"/>
</g>
<defs>
<clipPath id="clip0_6_395">
<rect width="147" height="155" fill="white"/>
</clipPath>
</defs>
</svg>
